<svg xmlns="http://www.w3.org/2000/svg" xmlns:xlink="http://www.w3.org/1999/xlink" id="terminal" baseProfile="full" viewBox="0 0 1296 852" width="1296" version="1.1">
    <defs>
        <termtosvg:template_settings xmlns:termtosvg="https://github.com/nbedos/termtosvg">
            <termtosvg:screen_geometry columns="162" rows="50"/>
            <termtosvg:animation type="css"/>
        </termtosvg:template_settings>
        <style type="text/css" id="generated-style"><![CDATA[#screen {
                font-family: 'DejaVu Sans Mono', monospace;
                font-style: normal;
                font-size: 14px;
            }

        text {
            dominant-baseline: text-before-edge;
            white-space: pre;
        }
    
            :root {
                --animation-duration: 14908ms;
            }

            @keyframes roll {
                0.000%{transform:translateY(0px)}
0.060%{transform:translateY(-884px)}
0.087%{transform:translateY(-1768px)}
5.628%{transform:translateY(-2652px)}
7.312%{transform:translateY(-3536px)}
7.788%{transform:translateY(-4420px)}
12.718%{transform:translateY(-5304px)}
13.530%{transform:translateY(-6188px)}
14.482%{transform:translateY(-7072px)}
15.837%{transform:translateY(-7956px)}
17.574%{transform:translateY(-8840px)}
18.379%{transform:translateY(-9724px)}
19.781%{transform:translateY(-10608px)}
20.345%{transform:translateY(-11492px)}
23.216%{transform:translateY(-12376px)}
24.195%{transform:translateY(-13260px)}
24.490%{transform:translateY(-14144px)}
25.778%{transform:translateY(-15028px)}
26.697%{transform:translateY(-15912px)}
28.186%{transform:translateY(-16796px)}
28.904%{transform:translateY(-17680px)}
30.085%{transform:translateY(-18564px)}
35.296%{transform:translateY(-19448px)}
36.329%{transform:translateY(-20332px)}
37.208%{transform:translateY(-21216px)}
38.060%{transform:translateY(-22100px)}
39.489%{transform:translateY(-22984px)}
40.160%{transform:translateY(-23868px)}
42.467%{transform:translateY(-24752px)}
42.481%{transform:translateY(-25636px)}
42.581%{transform:translateY(-26520px)}
42.601%{transform:translateY(-27404px)}
42.648%{transform:translateY(-28288px)}
42.668%{transform:translateY(-29172px)}
50.007%{transform:translateY(-30056px)}
59.398%{transform:translateY(-30940px)}
59.418%{transform:translateY(-31824px)}
59.525%{transform:translateY(-32708px)}
59.545%{transform:translateY(-33592px)}
59.572%{transform:translateY(-34476px)}
59.659%{transform:translateY(-35360px)}
59.948%{transform:translateY(-36244px)}
60.283%{transform:translateY(-37128px)}
60.612%{transform:translateY(-38012px)}
90.656%{transform:translateY(-38896px)}
90.770%{transform:translateY(-39780px)}
93.292%{transform:translateY(-40664px)}
100.000%{transform:translateY(-40664px)}
            }

            #screen_view {
                animation-duration: 14908ms;
                animation-iteration-count:infinite;
                animation-name:roll;
                animation-timing-function: steps(1,end);
                animation-fill-mode: forwards;
            }
        ]]></style>
        <style type="text/css" id="user-style">
            /* The colors defined below are the default 16 colors used for rendering text of the terminal. Adjust
               them as needed.
               PowerShell colors based on https://en.wikipedia.org/wiki/ANSI_escape_code#Colors */
            .foreground {fill: #cccccc;}
            .background {fill: #0c0c0c;}
            .color0 {fill: #0c0c0c;}
            .color1 {fill: #c50f1f;}
            .color2 {fill: #13a10e;}
            .color3 {fill: #c19c00;}
            .color4 {fill: #0037da;}
            .color5 {fill: #881798;}
            .color6 {fill: #3a96dd;}
            .color7 {fill: #cccccc;}
            .color8 {fill: #767676;}
            .color9 {fill: #e74856;}
            .color10 {fill: #16c60c;}
            .color11 {fill: #f9f1a5;}
            .color12 {fill: #3b78ff;}
            .color13 {fill: #b4009e;}
            .color14 {fill: #61d6d6;}
            .color15 {fill: #f2f2f2;}
        </style>
    </defs>
    <svg id="screen" width="1296" height="600" viewBox="0 0 1296 850" preserveAspectRatio="xMidYMin slice">
    <rect class="background" height="100%" width="100%" x="0" y="0"/><defs><g id="g1"><text x="0" textLength="8" class="background"> </text><text x="8" textLength="1288" class="foreground">                                                                                                                                                                 </text></g><g id="g2"><text x="0" textLength="16" class="foreground">  </text><text x="16" textLength="160" class="color3">root@easydomaintest </text><text x="176" textLength="168" class="color0">&#57520; /home/sys-sgn/recs </text><text x="344" textLength="8" class="color4">&#57520;</text><text x="352" textLength="8" class="foreground"> </text><text x="360" textLength="8" class="background"> </text><text x="368" textLength="928" class="foreground">                                                                                                                    </text></g><g id="g3"><text x="0" textLength="16" class="foreground">  </text><text x="16" textLength="160" class="color3">root@easydomaintest </text><text x="176" textLength="168" class="color0">&#57520; /home/sys-sgn/recs </text><text x="344" textLength="8" class="color4">&#57520;</text><text x="352" textLength="16" class="foreground"> s</text><text x="368" textLength="8" class="background"> </text><text x="376" textLength="920" class="foreground">                                                                                                                   </text></g><g id="g4"><text x="0" textLength="16" class="foreground">  </text><text x="16" textLength="160" class="color3">root@easydomaintest </text><text x="176" textLength="168" class="color0">&#57520; /home/sys-sgn/recs </text><text x="344" textLength="8" class="color4">&#57520;</text><text x="352" textLength="24" class="foreground"> sy</text><text x="376" textLength="8" class="background"> </text><text x="384" textLength="912" class="foreground">                                                                                                                  </text></g><g id="g5"><text x="0" textLength="16" class="foreground">  </text><text x="16" textLength="160" class="color3">root@easydomaintest </text><text x="176" textLength="168" class="color0">&#57520; /home/sys-sgn/recs </text><text x="344" textLength="8" class="color4">&#57520;</text><text x="352" textLength="32" class="foreground"> sys</text><text x="384" textLength="8" class="background"> </text><text x="392" textLength="904" class="foreground">                                                                                                                 </text></g><g id="g6"><text x="0" textLength="16" class="foreground">  </text><text x="16" textLength="160" class="color3">root@easydomaintest </text><text x="176" textLength="168" class="color0">&#57520; /home/sys-sgn/recs </text><text x="344" textLength="8" class="color4">&#57520;</text><text x="352" textLength="40" class="foreground"> syst</text><text x="392" textLength="8" class="background"> </text><text x="400" textLength="896" class="foreground">                                                                                                                </text></g><g id="g7"><text x="0" textLength="16" class="foreground">  </text><text x="16" textLength="160" class="color3">root@easydomaintest </text><text x="176" textLength="168" class="color0">&#57520; /home/sys-sgn/recs </text><text x="344" textLength="8" class="color4">&#57520;</text><text x="352" textLength="48" class="foreground"> syste</text><text x="400" textLength="8" class="background"> </text><text x="408" textLength="888" class="foreground">                                                                                                               </text></g><g id="g8"><text x="0" textLength="16" class="foreground">  </text><text x="16" textLength="160" class="color3">root@easydomaintest </text><text x="176" textLength="168" class="color0">&#57520; /home/sys-sgn/recs </text><text x="344" textLength="8" class="color4">&#57520;</text><text x="352" textLength="56" class="foreground"> system</text><text x="408" textLength="8" class="background"> </text><text x="416" textLength="880" class="foreground">                                                                                                              </text></g><g id="g9"><text x="0" textLength="16" class="foreground">  </text><text x="16" textLength="160" class="color3">root@easydomaintest </text><text x="176" textLength="168" class="color0">&#57520; /home/sys-sgn/recs </text><text x="344" textLength="8" class="color4">&#57520;</text><text x="352" textLength="64" class="foreground"> systemc</text><text x="416" textLength="8" class="background"> </text><text x="424" textLength="872" class="foreground">                                                                                                             </text></g><g id="g10"><text x="0" textLength="16" class="foreground">  </text><text x="16" textLength="160" class="color3">root@easydomaintest </text><text x="176" textLength="168" class="color0">&#57520; /home/sys-sgn/recs </text><text x="344" textLength="8" class="color4">&#57520;</text><text x="352" textLength="72" class="foreground"> systemct</text><text x="424" textLength="8" class="background"> </text><text x="432" textLength="864" class="foreground">                                                                                                            </text></g><g id="g11"><text x="0" textLength="16" class="foreground">  </text><text x="16" textLength="160" class="color3">root@easydomaintest </text><text x="176" textLength="168" class="color0">&#57520; /home/sys-sgn/recs </text><text x="344" textLength="8" class="color4">&#57520;</text><text x="352" textLength="80" class="foreground"> systemctl</text><text x="432" textLength="8" class="background"> </text><text x="440" textLength="856" class="foreground">                                                                                                           </text></g><g id="g12"><text x="0" textLength="16" class="foreground">  </text><text x="16" textLength="160" class="color3">root@easydomaintest </text><text x="176" textLength="168" class="color0">&#57520; /home/sys-sgn/recs </text><text x="344" textLength="8" class="color4">&#57520;</text><text x="352" textLength="88" class="foreground"> systemctl </text><text x="440" textLength="8" class="background"> </text><text x="448" textLength="848" class="foreground">                                                                                                          </text></g><g id="g13"><text x="0" textLength="16" class="foreground">  </text><text x="16" textLength="160" class="color3">root@easydomaintest </text><text x="176" textLength="168" class="color0">&#57520; /home/sys-sgn/recs </text><text x="344" textLength="8" class="color4">&#57520;</text><text x="352" textLength="96" class="foreground"> systemctl s</text><text x="448" textLength="8" class="background"> </text><text x="456" textLength="840" class="foreground">                                                                                                         </text></g><g id="g14"><text x="0" textLength="16" class="foreground">  </text><text x="16" textLength="160" class="color3">root@easydomaintest </text><text x="176" textLength="168" class="color0">&#57520; /home/sys-sgn/recs </text><text x="344" textLength="8" class="color4">&#57520;</text><text x="352" textLength="104" class="foreground"> systemctl st</text><text x="456" textLength="8" class="background"> </text><text x="464" textLength="832" class="foreground">                                                                                                        </text></g><g id="g15"><text x="0" textLength="16" class="foreground">  </text><text x="16" textLength="160" class="color3">root@easydomaintest </text><text x="176" textLength="168" class="color0">&#57520; /home/sys-sgn/recs </text><text x="344" textLength="8" class="color4">&#57520;</text><text x="352" textLength="112" class="foreground"> systemctl sto</text><text x="464" textLength="8" class="background"> </text><text x="472" textLength="824" class="foreground">                                                                                                       </text></g><g id="g16"><text x="0" textLength="16" class="foreground">  </text><text x="16" textLength="160" class="color3">root@easydomaintest </text><text x="176" textLength="168" class="color0">&#57520; /home/sys-sgn/recs </text><text x="344" textLength="8" class="color4">&#57520;</text><text x="352" textLength="120" class="foreground"> systemctl stop</text><text x="472" textLength="8" class="background"> </text><text x="480" textLength="816" class="foreground">                                                                                                      </text></g><g id="g17"><text x="0" textLength="16" class="foreground">  </text><text x="16" textLength="160" class="color3">root@easydomaintest </text><text x="176" textLength="168" class="color0">&#57520; /home/sys-sgn/recs </text><text x="344" textLength="8" class="color4">&#57520;</text><text x="352" textLength="128" class="foreground"> systemctl stop </text><text x="480" textLength="8" class="background"> </text><text x="488" textLength="808" class="foreground">                                                                                                     </text></g><g id="g18"><text x="0" textLength="16" class="foreground">  </text><text x="16" textLength="160" class="color3">root@easydomaintest </text><text x="176" textLength="168" class="color0">&#57520; /home/sys-sgn/recs </text><text x="344" textLength="8" class="color4">&#57520;</text><text x="352" textLength="136" class="foreground"> systemctl stop p</text><text x="488" textLength="8" class="background"> </text><text x="496" textLength="800" class="foreground">                                                                                                    </text></g><g id="g19"><text x="0" textLength="16" class="foreground">  </text><text x="16" textLength="160" class="color3">root@easydomaintest </text><text x="176" textLength="168" class="color0">&#57520; /home/sys-sgn/recs </text><text x="344" textLength="8" class="color4">&#57520;</text><text x="352" textLength="144" class="foreground"> systemctl stop pn</text><text x="496" textLength="8" class="background"> </text><text x="504" textLength="792" class="foreground">                                                                                                   </text></g><g id="g20"><text x="0" textLength="16" class="foreground">  </text><text x="16" textLength="160" class="color3">root@easydomaintest </text><text x="176" textLength="168" class="color0">&#57520; /home/sys-sgn/recs </text><text x="344" textLength="8" class="color4">&#57520;</text><text x="352" textLength="152" class="foreground"> systemctl stop pnd</text><text x="504" textLength="8" class="background"> </text><text x="512" textLength="784" class="foreground">                                                                                                  </text></g><g id="g21"><text x="0" textLength="16" class="foreground">  </text><text x="16" textLength="160" class="color3">root@easydomaintest </text><text x="176" textLength="168" class="color0">&#57520; /home/sys-sgn/recs </text><text x="344" textLength="8" class="color4">&#57520;</text><text x="352" textLength="160" class="foreground"> systemctl stop pnds</text><text x="512" textLength="8" class="background"> </text><text x="520" textLength="776" class="foreground">                                                                                                 </text></g><g id="g22"><text x="0" textLength="16" class="foreground">  </text><text x="16" textLength="160" class="color3">root@easydomaintest </text><text x="176" textLength="168" class="color0">&#57520; /home/sys-sgn/recs </text><text x="344" textLength="8" class="color4">&#57520;</text><text x="352" textLength="144" class="foreground"> systemctl stop pd</text><text x="496" textLength="8" class="background"> </text><text x="504" textLength="792" class="foreground">                                                                                                   </text></g><g id="g23"><text x="0" textLength="16" class="foreground">  </text><text x="16" textLength="160" class="color3">root@easydomaintest </text><text x="176" textLength="168" class="color0">&#57520; /home/sys-sgn/recs </text><text x="344" textLength="8" class="color4">&#57520;</text><text x="352" textLength="152" class="foreground"> systemctl stop pdn</text><text x="504" textLength="8" class="background"> </text><text x="512" textLength="784" class="foreground">                                                                                                  </text></g><g id="g24"><text x="0" textLength="16" class="foreground">  </text><text x="16" textLength="160" class="color3">root@easydomaintest </text><text x="176" textLength="168" class="color0">&#57520; /home/sys-sgn/recs </text><text x="344" textLength="8" class="color4">&#57520;</text><text x="352" textLength="160" class="foreground"> systemctl stop pdns</text><text x="512" textLength="8" class="background"> </text><text x="520" textLength="776" class="foreground">                                                                                                 </text></g><g id="g25"><text x="0" textLength="16" class="foreground">  </text><text x="16" textLength="160" class="color3">root@easydomaintest </text><text x="176" textLength="168" class="color0">&#57520; /home/sys-sgn/recs </text><text x="344" textLength="8" class="color4">&#57520;</text><text x="352" textLength="944" class="foreground"> systemctl stop pdns                                                                                                  </text></g><g id="g26"><text x="0" textLength="8" class="background"> </text></g><g id="g27"><text x="0" textLength="16" class="foreground">  </text><text x="16" textLength="160" class="color3">root@easydomaintest </text><text x="176" textLength="168" class="color0">&#57520; /home/sys-sgn/recs </text><text x="344" textLength="8" class="color4">&#57520;</text><text x="352" textLength="8" class="foreground"> </text><text x="360" textLength="408" class="background">pdns_server --daemon=no --guardian=no --loglevel=9 </text><text x="768" textLength="528" class="foreground">                                                                  </text></g><g id="g28"><text x="0" textLength="16" class="foreground">  </text><text x="16" textLength="160" class="color3">root@easydomaintest </text><text x="176" textLength="168" class="color0">&#57520; /home/sys-sgn/recs </text><text x="344" textLength="8" class="color4">&#57520;</text><text x="352" textLength="408" class="foreground"> pdns_server --daemon=no --guardian=no --loglevel=9</text><text x="760" textLength="8" class="background"> </text><text x="768" textLength="528" class="foreground">                                                                  </text></g><g id="g29"><text x="0" textLength="16" class="foreground">  </text><text x="16" textLength="160" class="color3">root@easydomaintest </text><text x="176" textLength="168" class="color0">&#57520; /home/sys-sgn/recs </text><text x="344" textLength="8" class="color4">&#57520;</text><text x="352" textLength="944" class="foreground"> pdns_server --daemon=no --guardian=no --loglevel=9                                                                   </text></g><g id="g30"><text x="0" textLength="592" class="foreground">Jun 27 11:01:56 Loading '/usr/lib/x86_64-linux-gnu/pdns/libbindbackend.so'</text></g><g id="g31"><text x="0" textLength="872" class="foreground">Jun 27 11:01:56 [bind2backend] This is the bind backend version 4.2.1 (with bind-dnssec-db support) reporting</text></g><g id="g32"><text x="0" textLength="608" class="foreground">Jun 27 11:01:56 Loading '/usr/lib/x86_64-linux-gnu/pdns/libgmysqlbackend.so'</text></g><g id="g33"><text x="0" textLength="656" class="foreground">Jun 27 11:01:56 [gmysqlbackend] This is the gmysql backend version 4.2.1 reporting</text></g><g id="g34"><text x="0" textLength="328" class="foreground">Jun 27 11:01:56 This is a standalone pdns</text></g><g id="g35"><text x="0" textLength="600" class="foreground">Jun 27 11:01:56 Listening on controlsocket in '/var/run/pdns.controlsocket'</text></g><g id="g36"><text x="0" textLength="368" class="foreground">Jun 27 11:01:56 UDP server bound to 0.0.0.0:53</text></g><g id="g37"><text x="0" textLength="360" class="foreground">Jun 27 11:01:56 UDPv6 server bound to [::]:53</text></g><g id="g38"><text x="0" textLength="368" class="foreground">Jun 27 11:01:56 TCP server bound to 0.0.0.0:53</text></g><g id="g39"><text x="0" textLength="360" class="foreground">Jun 27 11:01:56 TCPv6 server bound to [::]:53</text></g><g id="g40"><text x="0" textLength="648" class="foreground">Jun 27 11:01:56 PowerDNS Authoritative Server 4.2.1 (C) 2001-2019 PowerDNS.COM BV</text></g><g id="g41"><text x="0" textLength="536" class="foreground">Jun 27 11:01:56 Using 64-bits mode. Built using gcc 9.2.1 20200202.</text></g><g id="g42"><text x="0" textLength="1296" class="foreground">Jun 27 11:01:56 PowerDNS comes with ABSOLUTELY NO WARRANTY. This is free software, and you are welcome to redistribute it according to the terms of the GPL versio</text></g><g id="g43"><text x="0" textLength="32" class="foreground">n 2.</text></g><g id="g44"><text x="0" textLength="360" class="foreground">Jun 27 11:01:56 Set effective group id to 125</text></g><g id="g45"><text x="0" textLength="584" class="foreground">Jun 27 11:01:56 [webserver] Listening for HTTP requests on 127.0.0.1:8081</text></g><g id="g46"><text x="0" textLength="352" class="foreground">Jun 27 11:01:56 Set effective user id to 119</text></g><g id="g47"><text x="0" textLength="408" class="foreground">Jun 27 11:01:56 Master/slave communicator launching</text></g><g id="g48"><text x="0" textLength="408" class="foreground">Jun 27 11:01:56 Creating backend connection for TCP</text></g><g id="g49"><text x="0" textLength="576" class="foreground">Jun 27 11:01:56 [bindbackend] Parsing 0 domain(s), will report when done</text></g><g id="g50"><text x="0" textLength="640" class="foreground">Jun 27 11:01:56 [bindbackend] Done parsing domains, 0 rejected, 0 new, 0 removed</text></g><g id="g51"><text x="0" textLength="720" class="foreground">Jun 27 11:01:56 gmysql Connection successful. Connected to database 'pdns' on '127.0.0.1'.</text></g><g id="g52"><text x="0" textLength="688" class="foreground">Jun 27 11:01:56 No new unfresh slave domains, 0 queued for AXFR already, 0 in progress</text></g><g id="g53"><text x="0" textLength="456" class="foreground">Jun 27 11:01:56 About to create 3 backend threads for UDP</text></g><g id="g54"><text x="0" textLength="416" class="foreground">Jun 27 11:01:56 No master domains need notifications</text></g><g id="g55"><text x="0" textLength="552" class="foreground">Jun 27 11:01:56 Done launching threads, ready to distribute questions</text></g><g id="g56"><text x="0" textLength="16" class="foreground">^C</text><text x="16" textLength="8" class="background"> </text></g><g id="g57"><text x="0" textLength="16" class="foreground">^C</text></g><g id="g58"><text x="0" textLength="8" class="foreground"> </text><text x="8" textLength="16" class="color1">&#10008; </text><text x="24" textLength="8" class="foreground"> </text><text x="32" textLength="160" class="color3">root@easydomaintest </text><text x="192" textLength="168" class="color0">&#57520; /home/sys-sgn/recs </text><text x="360" textLength="8" class="color4">&#57520;</text><text x="368" textLength="8" class="foreground"> </text><text x="376" textLength="8" class="background"> </text><text x="384" textLength="912" class="foreground">                                                                                                                  </text></g><g id="g59"><text x="0" textLength="8" class="foreground"> </text><text x="8" textLength="16" class="color1">&#10008; </text><text x="24" textLength="8" class="foreground"> </text><text x="32" textLength="160" class="color3">root@easydomaintest </text><text x="192" textLength="168" class="color0">&#57520; /home/sys-sgn/recs </text><text x="360" textLength="8" class="color4">&#57520;</text><text x="368" textLength="928" class="foreground">                                                                                                                    </text></g></defs><g id="screen_view"><g><rect x="0" y="0" width="8" height="17" class="foreground"/><use xlink:href="#g1" y="0"/></g><g><rect x="0" y="884" width="176" height="17" class="color0"/><rect x="176" y="884" width="168" height="17" class="color4"/><rect x="360" y="884" width="8" height="17" class="foreground"/><use xlink:href="#g2" y="884"/></g><g><rect x="0" y="1768" width="176" height="17" class="color0"/><rect x="176" y="1768" width="168" height="17" class="color4"/><rect x="360" y="1768" width="8" height="17" class="foreground"/><use xlink:href="#g2" y="1768"/></g><g><rect x="0" y="2652" width="176" height="17" class="color0"/><rect x="176" y="2652" width="168" height="17" class="color4"/><rect x="368" y="2652" width="8" height="17" class="foreground"/><use xlink:href="#g3" y="2652"/></g><g><rect x="0" y="3536" width="176" height="17" class="color0"/><rect x="176" y="3536" width="168" height="17" class="color4"/><rect x="376" y="3536" width="8" height="17" class="foreground"/><use xlink:href="#g4" y="3536"/></g><g><rect x="0" y="4420" width="176" height="17" class="color0"/><rect x="176" y="4420" width="168" height="17" class="color4"/><rect x="384" y="4420" width="8" height="17" class="foreground"/><use xlink:href="#g5" y="4420"/></g><g><rect x="0" y="5304" width="176" height="17" class="color0"/><rect x="176" y="5304" width="168" height="17" class="color4"/><rect x="392" y="5304" width="8" height="17" class="foreground"/><use xlink:href="#g6" y="5304"/></g><g><rect x="0" y="6188" width="176" height="17" class="color0"/><rect x="176" y="6188" width="168" height="17" class="color4"/><rect x="400" y="6188" width="8" height="17" class="foreground"/><use xlink:href="#g7" y="6188"/></g><g><rect x="0" y="7072" width="176" height="17" class="color0"/><rect x="176" y="7072" width="168" height="17" class="color4"/><rect x="408" y="7072" width="8" height="17" class="foreground"/><use xlink:href="#g8" y="7072"/></g><g><rect x="0" y="7956" width="176" height="17" class="color0"/><rect x="176" y="7956" width="168" height="17" class="color4"/><rect x="416" y="7956" width="8" height="17" class="foreground"/><use xlink:href="#g9" y="7956"/></g><g><rect x="0" y="8840" width="176" height="17" class="color0"/><rect x="176" y="8840" width="168" height="17" class="color4"/><rect x="424" y="8840" width="8" height="17" class="foreground"/><use xlink:href="#g10" y="8840"/></g><g><rect x="0" y="9724" width="176" height="17" class="color0"/><rect x="176" y="9724" width="168" height="17" class="color4"/><rect x="432" y="9724" width="8" height="17" class="foreground"/><use xlink:href="#g11" y="9724"/></g><g><rect x="0" y="10608" width="176" height="17" class="color0"/><rect x="176" y="10608" width="168" height="17" class="color4"/><rect x="440" y="10608" width="8" height="17" class="foreground"/><use xlink:href="#g12" y="10608"/></g><g><rect x="0" y="11492" width="176" height="17" class="color0"/><rect x="176" y="11492" width="168" height="17" class="color4"/><rect x="448" y="11492" width="8" height="17" class="foreground"/><use xlink:href="#g13" y="11492"/></g><g><rect x="0" y="12376" width="176" height="17" class="color0"/><rect x="176" y="12376" width="168" height="17" class="color4"/><rect x="456" y="12376" width="8" height="17" class="foreground"/><use xlink:href="#g14" y="12376"/></g><g><rect x="0" y="13260" width="176" height="17" class="color0"/><rect x="176" y="13260" width="168" height="17" class="color4"/><rect x="464" y="13260" width="8" height="17" class="foreground"/><use xlink:href="#g15" y="13260"/></g><g><rect x="0" y="14144" width="176" height="17" class="color0"/><rect x="176" y="14144" width="168" height="17" class="color4"/><rect x="472" y="14144" width="8" height="17" class="foreground"/><use xlink:href="#g16" y="14144"/></g><g><rect x="0" y="15028" width="176" height="17" class="color0"/><rect x="176" y="15028" width="168" height="17" class="color4"/><rect x="480" y="15028" width="8" height="17" class="foreground"/><use xlink:href="#g17" y="15028"/></g><g><rect x="0" y="15912" width="176" height="17" class="color0"/><rect x="176" y="15912" width="168" height="17" class="color4"/><rect x="488" y="15912" width="8" height="17" class="foreground"/><use xlink:href="#g18" y="15912"/></g><g><rect x="0" y="16796" width="176" height="17" class="color0"/><rect x="176" y="16796" width="168" height="17" class="color4"/><rect x="496" y="16796" width="8" height="17" class="foreground"/><use xlink:href="#g19" y="16796"/></g><g><rect x="0" y="17680" width="176" height="17" class="color0"/><rect x="176" y="17680" width="168" height="17" class="color4"/><rect x="504" y="17680" width="8" height="17" class="foreground"/><use xlink:href="#g20" y="17680"/></g><g><rect x="0" y="18564" width="176" height="17" class="color0"/><rect x="176" y="18564" width="168" height="17" class="color4"/><rect x="512" y="18564" width="8" height="17" class="foreground"/><use xlink:href="#g21" y="18564"/></g><g><rect x="0" y="19448" width="176" height="17" class="color0"/><rect x="176" y="19448" width="168" height="17" class="color4"/><rect x="504" y="19448" width="8" height="17" class="foreground"/><use xlink:href="#g20" y="19448"/></g><g><rect x="0" y="20332" width="176" height="17" class="color0"/><rect x="176" y="20332" width="168" height="17" class="color4"/><rect x="496" y="20332" width="8" height="17" class="foreground"/><use xlink:href="#g19" y="20332"/></g><g><rect x="0" y="21216" width="176" height="17" class="color0"/><rect x="176" y="21216" width="168" height="17" class="color4"/><rect x="488" y="21216" width="8" height="17" class="foreground"/><use xlink:href="#g18" y="21216"/></g><g><rect x="0" y="22100" width="176" height="17" class="color0"/><rect x="176" y="22100" width="168" height="17" class="color4"/><rect x="496" y="22100" width="8" height="17" class="foreground"/><use xlink:href="#g22" y="22100"/></g><g><rect x="0" y="22984" width="176" height="17" class="color0"/><rect x="176" y="22984" width="168" height="17" class="color4"/><rect x="504" y="22984" width="8" height="17" class="foreground"/><use xlink:href="#g23" y="22984"/></g><g><rect x="0" y="23868" width="176" height="17" class="color0"/><rect x="176" y="23868" width="168" height="17" class="color4"/><rect x="512" y="23868" width="8" height="17" class="foreground"/><use xlink:href="#g24" y="23868"/></g><g><rect x="0" y="24752" width="176" height="17" class="color0"/><rect x="176" y="24752" width="168" height="17" class="color4"/><rect x="512" y="24752" width="8" height="17" class="foreground"/><use xlink:href="#g24" y="24752"/></g><g><rect x="0" y="25636" width="176" height="17" class="color0"/><rect x="176" y="25636" width="168" height="17" class="color4"/><use xlink:href="#g25" y="25636"/><rect x="0" y="25653" width="8" height="17" class="foreground"/><use xlink:href="#g26" y="25653"/></g><g><rect x="0" y="26520" width="176" height="17" class="color0"/><rect x="176" y="26520" width="168" height="17" class="color4"/><use xlink:href="#g25" y="26520"/><rect x="0" y="26537" width="8" height="17" class="foreground"/><use xlink:href="#g1" y="26537"/></g><g><rect x="0" y="27404" width="176" height="17" class="color0"/><rect x="176" y="27404" width="168" height="17" class="color4"/><use xlink:href="#g25" y="27404"/><rect x="0" y="27421" width="8" height="17" class="foreground"/><use xlink:href="#g1" y="27421"/></g><g><rect x="0" y="28288" width="176" height="17" class="color0"/><rect x="176" y="28288" width="168" height="17" class="color4"/><use xlink:href="#g25" y="28288"/><rect x="0" y="28305" width="176" height="17" class="color0"/><rect x="176" y="28305" width="168" height="17" class="color4"/><rect x="360" y="28305" width="8" height="17" class="foreground"/><use xlink:href="#g2" y="28305"/></g><g><rect x="0" y="29172" width="176" height="17" class="color0"/><rect x="176" y="29172" width="168" height="17" class="color4"/><use xlink:href="#g25" y="29172"/><rect x="0" y="29189" width="176" height="17" class="color0"/><rect x="176" y="29189" width="168" height="17" class="color4"/><rect x="360" y="29189" width="8" height="17" class="foreground"/><use xlink:href="#g2" y="29189"/></g><g><rect x="0" y="30056" width="176" height="17" class="color0"/><rect x="176" y="30056" width="168" height="17" class="color4"/><use xlink:href="#g25" y="30056"/><rect x="0" y="30073" width="176" height="17" class="color0"/><rect x="176" y="30073" width="168" height="17" class="color4"/><rect x="360" y="30073" width="408" height="17" class="foreground"/><use xlink:href="#g27" y="30073"/></g><g><rect x="0" y="30940" width="176" height="17" class="color0"/><rect x="176" y="30940" width="168" height="17" class="color4"/><use xlink:href="#g25" y="30940"/><rect x="0" y="30957" width="176" height="17" class="color0"/><rect x="176" y="30957" width="168" height="17" class="color4"/><rect x="760" y="30957" width="8" height="17" class="foreground"/><use xlink:href="#g28" y="30957"/></g><g><rect x="0" y="31824" width="176" height="17" class="color0"/><rect x="176" y="31824" width="168" height="17" class="color4"/><use xlink:href="#g25" y="31824"/><rect x="0" y="31841" width="176" height="17" class="color0"/><rect x="176" y="31841" width="168" height="17" class="color4"/><use xlink:href="#g29" y="31841"/><rect x="0" y="31858" width="8" height="17" class="foreground"/><use xlink:href="#g26" y="31858"/></g><g><rect x="0" y="32708" width="176" height="17" class="color0"/><rect x="176" y="32708" width="168" height="17" class="color4"/><use xlink:href="#g25" y="32708"/><rect x="0" y="32725" width="176" height="17" class="color0"/><rect x="176" y="32725" width="168" height="17" class="color4"/><use xlink:href="#g29" y="32725"/><use xlink:href="#g30" y="32742"/><rect x="0" y="32759" width="8" height="17" class="foreground"/><use xlink:href="#g26" y="32759"/></g><g><rect x="0" y="33592" width="176" height="17" class="color0"/><rect x="176" y="33592" width="168" height="17" class="color4"/><use xlink:href="#g25" y="33592"/><rect x="0" y="33609" width="176" height="17" class="color0"/><rect x="176" y="33609" width="168" height="17" class="color4"/><use xlink:href="#g29" y="33609"/><use xlink:href="#g30" y="33626"/><use xlink:href="#g31" y="33643"/><use xlink:href="#g32" y="33660"/><use xlink:href="#g33" y="33677"/><use xlink:href="#g34" y="33694"/><use xlink:href="#g35" y="33711"/><use xlink:href="#g36" y="33728"/><use xlink:href="#g37" y="33745"/><use xlink:href="#g38" y="33762"/><use xlink:href="#g39" y="33779"/><rect x="0" y="33796" width="8" height="17" class="foreground"/><use xlink:href="#g26" y="33796"/></g><g><rect x="0" y="34476" width="176" height="17" class="color0"/><rect x="176" y="34476" width="168" height="17" class="color4"/><use xlink:href="#g25" y="34476"/><rect x="0" y="34493" width="176" height="17" class="color0"/><rect x="176" y="34493" width="168" height="17" class="color4"/><use xlink:href="#g29" y="34493"/><use xlink:href="#g30" y="34510"/><use xlink:href="#g31" y="34527"/><use xlink:href="#g32" y="34544"/><use xlink:href="#g33" y="34561"/><use xlink:href="#g34" y="34578"/><use xlink:href="#g35" y="34595"/><use xlink:href="#g36" y="34612"/><use xlink:href="#g37" y="34629"/><use xlink:href="#g38" y="34646"/><use xlink:href="#g39" y="34663"/><use xlink:href="#g40" y="34680"/><use xlink:href="#g41" y="34697"/><use xlink:href="#g42" y="34714"/><use xlink:href="#g43" y="34731"/><use xlink:href="#g44" y="34748"/><use xlink:href="#g45" y="34765"/><use xlink:href="#g46" y="34782"/><use xlink:href="#g47" y="34799"/><use xlink:href="#g48" y="34816"/><use xlink:href="#g49" y="34833"/><use xlink:href="#g50" y="34850"/><rect x="0" y="34867" width="8" height="17" class="foreground"/><use xlink:href="#g26" y="34867"/></g><g><rect x="0" y="35360" width="176" height="17" class="color0"/><rect x="176" y="35360" width="168" height="17" class="color4"/><use xlink:href="#g25" y="35360"/><rect x="0" y="35377" width="176" height="17" class="color0"/><rect x="176" y="35377" width="168" height="17" class="color4"/><use xlink:href="#g29" y="35377"/><use xlink:href="#g30" y="35394"/><use xlink:href="#g31" y="35411"/><use xlink:href="#g32" y="35428"/><use xlink:href="#g33" y="35445"/><use xlink:href="#g34" y="35462"/><use xlink:href="#g35" y="35479"/><use xlink:href="#g36" y="35496"/><use xlink:href="#g37" y="35513"/><use xlink:href="#g38" y="35530"/><use xlink:href="#g39" y="35547"/><use xlink:href="#g40" y="35564"/><use xlink:href="#g41" y="35581"/><use xlink:href="#g42" y="35598"/><use xlink:href="#g43" y="35615"/><use xlink:href="#g44" y="35632"/><use xlink:href="#g45" y="35649"/><use xlink:href="#g46" y="35666"/><use xlink:href="#g47" y="35683"/><use xlink:href="#g48" y="35700"/><use xlink:href="#g49" y="35717"/><use xlink:href="#g50" y="35734"/><use xlink:href="#g51" y="35751"/><use xlink:href="#g51" y="35768"/><use xlink:href="#g52" y="35785"/><use xlink:href="#g53" y="35802"/><use xlink:href="#g54" y="35819"/><use xlink:href="#g51" y="35836"/><rect x="0" y="35853" width="8" height="17" class="foreground"/><use xlink:href="#g26" y="35853"/></g><g><rect x="0" y="36244" width="176" height="17" class="color0"/><rect x="176" y="36244" width="168" height="17" class="color4"/><use xlink:href="#g25" y="36244"/><rect x="0" y="36261" width="176" height="17" class="color0"/><rect x="176" y="36261" width="168" height="17" class="color4"/><use xlink:href="#g29" y="36261"/><use xlink:href="#g30" y="36278"/><use xlink:href="#g31" y="36295"/><use xlink:href="#g32" y="36312"/><use xlink:href="#g33" y="36329"/><use xlink:href="#g34" y="36346"/><use xlink:href="#g35" y="36363"/><use xlink:href="#g36" y="36380"/><use xlink:href="#g37" y="36397"/><use xlink:href="#g38" y="36414"/><use xlink:href="#g39" y="36431"/><use xlink:href="#g40" y="36448"/><use xlink:href="#g41" y="36465"/><use xlink:href="#g42" y="36482"/><use xlink:href="#g43" y="36499"/><use xlink:href="#g44" y="36516"/><use xlink:href="#g45" y="36533"/><use xlink:href="#g46" y="36550"/><use xlink:href="#g47" y="36567"/><use xlink:href="#g48" y="36584"/><use xlink:href="#g49" y="36601"/><use xlink:href="#g50" y="36618"/><use xlink:href="#g51" y="36635"/><use xlink:href="#g51" y="36652"/><use xlink:href="#g52" y="36669"/><use xlink:href="#g53" y="36686"/><use xlink:href="#g54" y="36703"/><use xlink:href="#g51" y="36720"/><use xlink:href="#g51" y="36737"/><rect x="0" y="36754" width="8" height="17" class="foreground"/><use xlink:href="#g26" y="36754"/></g><g><rect x="0" y="37128" width="176" height="17" class="color0"/><rect x="176" y="37128" width="168" height="17" class="color4"/><use xlink:href="#g25" y="37128"/><rect x="0" y="37145" width="176" height="17" class="color0"/><rect x="176" y="37145" width="168" height="17" class="color4"/><use xlink:href="#g29" y="37145"/><use xlink:href="#g30" y="37162"/><use xlink:href="#g31" y="37179"/><use xlink:href="#g32" y="37196"/><use xlink:href="#g33" y="37213"/><use xlink:href="#g34" y="37230"/><use xlink:href="#g35" y="37247"/><use xlink:href="#g36" y="37264"/><use xlink:href="#g37" y="37281"/><use xlink:href="#g38" y="37298"/><use xlink:href="#g39" y="37315"/><use xlink:href="#g40" y="37332"/><use xlink:href="#g41" y="37349"/><use xlink:href="#g42" y="37366"/><use xlink:href="#g43" y="37383"/><use xlink:href="#g44" y="37400"/><use xlink:href="#g45" y="37417"/><use xlink:href="#g46" y="37434"/><use xlink:href="#g47" y="37451"/><use xlink:href="#g48" y="37468"/><use xlink:href="#g49" y="37485"/><use xlink:href="#g50" y="37502"/><use xlink:href="#g51" y="37519"/><use xlink:href="#g51" y="37536"/><use xlink:href="#g52" y="37553"/><use xlink:href="#g53" y="37570"/><use xlink:href="#g54" y="37587"/><use xlink:href="#g51" y="37604"/><use xlink:href="#g51" y="37621"/><use xlink:href="#g51" y="37638"/><rect x="0" y="37655" width="8" height="17" class="foreground"/><use xlink:href="#g26" y="37655"/></g><g><rect x="0" y="38012" width="176" height="17" class="color0"/><rect x="176" y="38012" width="168" height="17" class="color4"/><use xlink:href="#g25" y="38012"/><rect x="0" y="38029" width="176" height="17" class="color0"/><rect x="176" y="38029" width="168" height="17" class="color4"/><use xlink:href="#g29" y="38029"/><use xlink:href="#g30" y="38046"/><use xlink:href="#g31" y="38063"/><use xlink:href="#g32" y="38080"/><use xlink:href="#g33" y="38097"/><use xlink:href="#g34" y="38114"/><use xlink:href="#g35" y="38131"/><use xlink:href="#g36" y="38148"/><use xlink:href="#g37" y="38165"/><use xlink:href="#g38" y="38182"/><use xlink:href="#g39" y="38199"/><use xlink:href="#g40" y="38216"/><use xlink:href="#g41" y="38233"/><use xlink:href="#g42" y="38250"/><use xlink:href="#g43" y="38267"/><use xlink:href="#g44" y="38284"/><use xlink:href="#g45" y="38301"/><use xlink:href="#g46" y="38318"/><use xlink:href="#g47" y="38335"/><use xlink:href="#g48" y="38352"/><use xlink:href="#g49" y="38369"/><use xlink:href="#g50" y="38386"/><use xlink:href="#g51" y="38403"/><use xlink:href="#g51" y="38420"/><use xlink:href="#g52" y="38437"/><use xlink:href="#g53" y="38454"/><use xlink:href="#g54" y="38471"/><use xlink:href="#g51" y="38488"/><use xlink:href="#g51" y="38505"/><use xlink:href="#g51" y="38522"/><use xlink:href="#g55" y="38539"/><rect x="0" y="38556" width="8" height="17" class="foreground"/><use xlink:href="#g26" y="38556"/></g><g><rect x="0" y="38896" width="176" height="17" class="color0"/><rect x="176" y="38896" width="168" height="17" class="color4"/><use xlink:href="#g25" y="38896"/><rect x="0" y="38913" width="176" height="17" class="color0"/><rect x="176" y="38913" width="168" height="17" class="color4"/><use xlink:href="#g29" y="38913"/><use xlink:href="#g30" y="38930"/><use xlink:href="#g31" y="38947"/><use xlink:href="#g32" y="38964"/><use xlink:href="#g33" y="38981"/><use xlink:href="#g34" y="38998"/><use xlink:href="#g35" y="39015"/><use xlink:href="#g36" y="39032"/><use xlink:href="#g37" y="39049"/><use xlink:href="#g38" y="39066"/><use xlink:href="#g39" y="39083"/><use xlink:href="#g40" y="39100"/><use xlink:href="#g41" y="39117"/><use xlink:href="#g42" y="39134"/><use xlink:href="#g43" y="39151"/><use xlink:href="#g44" y="39168"/><use xlink:href="#g45" y="39185"/><use xlink:href="#g46" y="39202"/><use xlink:href="#g47" y="39219"/><use xlink:href="#g48" y="39236"/><use xlink:href="#g49" y="39253"/><use xlink:href="#g50" y="39270"/><use xlink:href="#g51" y="39287"/><use xlink:href="#g51" y="39304"/><use xlink:href="#g52" y="39321"/><use xlink:href="#g53" y="39338"/><use xlink:href="#g54" y="39355"/><use xlink:href="#g51" y="39372"/><use xlink:href="#g51" y="39389"/><use xlink:href="#g51" y="39406"/><use xlink:href="#g55" y="39423"/><rect x="16" y="39440" width="8" height="17" class="foreground"/><use xlink:href="#g56" y="39440"/></g><g><rect x="0" y="39780" width="176" height="17" class="color0"/><rect x="176" y="39780" width="168" height="17" class="color4"/><use xlink:href="#g25" y="39780"/><rect x="0" y="39797" width="176" height="17" class="color0"/><rect x="176" y="39797" width="168" height="17" class="color4"/><use xlink:href="#g29" y="39797"/><use xlink:href="#g30" y="39814"/><use xlink:href="#g31" y="39831"/><use xlink:href="#g32" y="39848"/><use xlink:href="#g33" y="39865"/><use xlink:href="#g34" y="39882"/><use xlink:href="#g35" y="39899"/><use xlink:href="#g36" y="39916"/><use xlink:href="#g37" y="39933"/><use xlink:href="#g38" y="39950"/><use xlink:href="#g39" y="39967"/><use xlink:href="#g40" y="39984"/><use xlink:href="#g41" y="40001"/><use xlink:href="#g42" y="40018"/><use xlink:href="#g43" y="40035"/><use xlink:href="#g44" y="40052"/><use xlink:href="#g45" y="40069"/><use xlink:href="#g46" y="40086"/><use xlink:href="#g47" y="40103"/><use xlink:href="#g48" y="40120"/><use xlink:href="#g49" y="40137"/><use xlink:href="#g50" y="40154"/><use xlink:href="#g51" y="40171"/><use xlink:href="#g51" y="40188"/><use xlink:href="#g52" y="40205"/><use xlink:href="#g53" y="40222"/><use xlink:href="#g54" y="40239"/><use xlink:href="#g51" y="40256"/><use xlink:href="#g51" y="40273"/><use xlink:href="#g51" y="40290"/><use xlink:href="#g55" y="40307"/><use xlink:href="#g57" y="40324"/><rect x="0" y="40341" width="192" height="17" class="color0"/><rect x="192" y="40341" width="168" height="17" class="color4"/><rect x="376" y="40341" width="8" height="17" class="foreground"/><use xlink:href="#g58" y="40341"/></g><g><rect x="0" y="40664" width="176" height="17" class="color0"/><rect x="176" y="40664" width="168" height="17" class="color4"/><use xlink:href="#g25" y="40664"/><rect x="0" y="40681" width="176" height="17" class="color0"/><rect x="176" y="40681" width="168" height="17" class="color4"/><use xlink:href="#g29" y="40681"/><use xlink:href="#g30" y="40698"/><use xlink:href="#g31" y="40715"/><use xlink:href="#g32" y="40732"/><use xlink:href="#g33" y="40749"/><use xlink:href="#g34" y="40766"/><use xlink:href="#g35" y="40783"/><use xlink:href="#g36" y="40800"/><use xlink:href="#g37" y="40817"/><use xlink:href="#g38" y="40834"/><use xlink:href="#g39" y="40851"/><use xlink:href="#g40" y="40868"/><use xlink:href="#g41" y="40885"/><use xlink:href="#g42" y="40902"/><use xlink:href="#g43" y="40919"/><use xlink:href="#g44" y="40936"/><use xlink:href="#g45" y="40953"/><use xlink:href="#g46" y="40970"/><use xlink:href="#g47" y="40987"/><use xlink:href="#g48" y="41004"/><use xlink:href="#g49" y="41021"/><use xlink:href="#g50" y="41038"/><use xlink:href="#g51" y="41055"/><use xlink:href="#g51" y="41072"/><use xlink:href="#g52" y="41089"/><use xlink:href="#g53" y="41106"/><use xlink:href="#g54" y="41123"/><use xlink:href="#g51" y="41140"/><use xlink:href="#g51" y="41157"/><use xlink:href="#g51" y="41174"/><use xlink:href="#g55" y="41191"/><use xlink:href="#g57" y="41208"/><rect x="0" y="41225" width="192" height="17" class="color0"/><rect x="192" y="41225" width="168" height="17" class="color4"/><use xlink:href="#g59" y="41225"/><rect x="0" y="41242" width="8" height="17" class="foreground"/><use xlink:href="#g26" y="41242"/></g></g></svg>
</svg>