<svg xmlns="http://www.w3.org/2000/svg" xmlns:xlink="http://www.w3.org/1999/xlink" id="terminal" baseProfile="full" viewBox="0 0 1296 120" width="1296" version="1.1">
    <defs>
        <termtosvg:template_settings xmlns:termtosvg="https://github.com/nbedos/termtosvg">
            <termtosvg:screen_geometry columns="162" rows="50"/>
            <termtosvg:animation type="css"/>
        </termtosvg:template_settings>
        <style type="text/css" id="generated-style"><![CDATA[#screen {
                font-family: 'DejaVu Sans Mono', monospace;
                font-style: normal;
                font-size: 14px;
            }

        text {
            dominant-baseline: text-before-edge;
            white-space: pre;
        }
    
            :root {
                --animation-duration: 9368ms;
            }

            @keyframes roll {
                0.000%{transform:translateY(0px)}
0.096%{transform:translateY(-884px)}
0.139%{transform:translateY(-1768px)}
3.298%{transform:translateY(-2652px)}
5.348%{transform:translateY(-3536px)}
11.507%{transform:translateY(-4420px)}
16.524%{transform:translateY(-5304px)}
21.061%{transform:translateY(-6188px)}
22.780%{transform:translateY(-7072px)}
24.498%{transform:translateY(-7956px)}
26.185%{transform:translateY(-8840px)}
27.850%{transform:translateY(-9724px)}
29.526%{transform:translateY(-10608px)}
32.088%{transform:translateY(-11492px)}
35.728%{transform:translateY(-12376px)}
38.599%{transform:translateY(-13260px)}
41.674%{transform:translateY(-14144px)}
43.745%{transform:translateY(-15028px)}
46.403%{transform:translateY(-15912px)}
48.111%{transform:translateY(-16796px)}
50.011%{transform:translateY(-17680px)}
54.579%{transform:translateY(-18564px)}
54.590%{transform:translateY(-19448px)}
55.807%{transform:translateY(-20332px)}
55.903%{transform:translateY(-21216px)}
55.956%{transform:translateY(-22100px)}
65.446%{transform:translateY(-22984px)}
72.257%{transform:translateY(-23868px)}
72.289%{transform:translateY(-24752px)}
72.556%{transform:translateY(-25636px)}
72.598%{transform:translateY(-26520px)}
72.694%{transform:translateY(-27404px)}
89.325%{transform:translateY(-28288px)}
100.000%{transform:translateY(-28288px)}
            }

            #screen_view {
                animation-duration: 9368ms;
                animation-iteration-count:infinite;
                animation-name:roll;
                animation-timing-function: steps(1,end);
                animation-fill-mode: forwards;
            }
        ]]></style>
        <style type="text/css" id="user-style">
            /* The colors defined below are the default 16 colors used for rendering text of the terminal. Adjust
               them as needed.
               PowerShell colors based on https://en.wikipedia.org/wiki/ANSI_escape_code#Colors */
            .foreground {fill: #cccccc;}
            .background {fill: #0c0c0c;}
            .color0 {fill: #0c0c0c;}
            .color1 {fill: #c50f1f;}
            .color2 {fill: #13a10e;}
            .color3 {fill: #c19c00;}
            .color4 {fill: #0037da;}
            .color5 {fill: #881798;}
            .color6 {fill: #3a96dd;}
            .color7 {fill: #cccccc;}
            .color8 {fill: #767676;}
            .color9 {fill: #e74856;}
            .color10 {fill: #16c60c;}
            .color11 {fill: #f9f1a5;}
            .color12 {fill: #3b78ff;}
            .color13 {fill: #b4009e;}
            .color14 {fill: #61d6d6;}
            .color15 {fill: #f2f2f2;}
        </style>
    </defs>
    <svg id="screen" width="1296" height="120" viewBox="0 0 1296 120" preserveAspectRatio="xMidYMin slice">
    <rect class="background" height="100%" width="100%" x="0" y="0"/><defs><g id="g1"><text x="0" textLength="8" class="background"> </text><text x="8" textLength="1288" class="foreground">                                                                                                                                                                 </text></g><g id="g2"><text x="0" textLength="16" class="foreground">  </text><text x="16" textLength="160" class="color3">root@easydomaintest </text><text x="176" textLength="168" class="color0">&#57520; /home/sys-sgn/recs </text><text x="344" textLength="8" class="color4">&#57520;</text><text x="352" textLength="8" class="foreground"> </text><text x="360" textLength="8" class="background"> </text><text x="368" textLength="928" class="foreground">                                                                                                                    </text></g><g id="g3"><text x="0" textLength="16" class="foreground">  </text><text x="16" textLength="160" class="color3">root@easydomaintest </text><text x="176" textLength="168" class="color0">&#57520; /home/sys-sgn/recs </text><text x="344" textLength="8" class="color4">&#57520;</text><text x="352" textLength="80" class="foreground"> termtosvg</text><text x="432" textLength="8" class="background"> </text><text x="440" textLength="856" class="foreground">                                                                                                           </text></g><g id="g4"><text x="0" textLength="16" class="foreground">  </text><text x="16" textLength="160" class="color3">root@easydomaintest </text><text x="176" textLength="168" class="color0">&#57520; /home/sys-sgn/recs </text><text x="344" textLength="8" class="color4">&#57520;</text><text x="352" textLength="408" class="foreground"> pdns_server --daemon=no --guardian=no --loglevel=9</text><text x="760" textLength="8" class="background"> </text><text x="768" textLength="528" class="foreground">                                                                  </text></g><g id="g5"><text x="0" textLength="16" class="foreground">  </text><text x="16" textLength="160" class="color3">root@easydomaintest </text><text x="176" textLength="168" class="color0">&#57520; /home/sys-sgn/recs </text><text x="344" textLength="8" class="color4">&#57520;</text><text x="352" textLength="160" class="foreground"> systemctl stop pdns</text><text x="512" textLength="8" class="background"> </text><text x="520" textLength="776" class="foreground">                                                                                                 </text></g><g id="g6"><text x="0" textLength="16" class="foreground">  </text><text x="16" textLength="160" class="color3">root@easydomaintest </text><text x="176" textLength="168" class="color0">&#57520; /home/sys-sgn/recs </text><text x="344" textLength="8" class="color4">&#57520;</text><text x="352" textLength="152" class="foreground"> systemctl stop pdn</text><text x="504" textLength="8" class="background"> </text><text x="512" textLength="784" class="foreground">                                                                                                  </text></g><g id="g7"><text x="0" textLength="16" class="foreground">  </text><text x="16" textLength="160" class="color3">root@easydomaintest </text><text x="176" textLength="168" class="color0">&#57520; /home/sys-sgn/recs </text><text x="344" textLength="8" class="color4">&#57520;</text><text x="352" textLength="144" class="foreground"> systemctl stop pd</text><text x="496" textLength="8" class="background"> </text><text x="504" textLength="792" class="foreground">                                                                                                   </text></g><g id="g8"><text x="0" textLength="16" class="foreground">  </text><text x="16" textLength="160" class="color3">root@easydomaintest </text><text x="176" textLength="168" class="color0">&#57520; /home/sys-sgn/recs </text><text x="344" textLength="8" class="color4">&#57520;</text><text x="352" textLength="136" class="foreground"> systemctl stop p</text><text x="488" textLength="8" class="background"> </text><text x="496" textLength="800" class="foreground">                                                                                                    </text></g><g id="g9"><text x="0" textLength="16" class="foreground">  </text><text x="16" textLength="160" class="color3">root@easydomaintest </text><text x="176" textLength="168" class="color0">&#57520; /home/sys-sgn/recs </text><text x="344" textLength="8" class="color4">&#57520;</text><text x="352" textLength="128" class="foreground"> systemctl stop </text><text x="480" textLength="8" class="background"> </text><text x="488" textLength="808" class="foreground">                                                                                                     </text></g><g id="g10"><text x="0" textLength="16" class="foreground">  </text><text x="16" textLength="160" class="color3">root@easydomaintest </text><text x="176" textLength="168" class="color0">&#57520; /home/sys-sgn/recs </text><text x="344" textLength="8" class="color4">&#57520;</text><text x="352" textLength="120" class="foreground"> systemctl stop</text><text x="472" textLength="8" class="background"> </text><text x="480" textLength="816" class="foreground">                                                                                                      </text></g><g id="g11"><text x="0" textLength="16" class="foreground">  </text><text x="16" textLength="160" class="color3">root@easydomaintest </text><text x="176" textLength="168" class="color0">&#57520; /home/sys-sgn/recs </text><text x="344" textLength="8" class="color4">&#57520;</text><text x="352" textLength="112" class="foreground"> systemctl sto</text><text x="464" textLength="8" class="background"> </text><text x="472" textLength="824" class="foreground">                                                                                                       </text></g><g id="g12"><text x="0" textLength="16" class="foreground">  </text><text x="16" textLength="160" class="color3">root@easydomaintest </text><text x="176" textLength="168" class="color0">&#57520; /home/sys-sgn/recs </text><text x="344" textLength="8" class="color4">&#57520;</text><text x="352" textLength="104" class="foreground"> systemctl st</text><text x="456" textLength="8" class="background"> </text><text x="464" textLength="832" class="foreground">                                                                                                        </text></g><g id="g13"><text x="0" textLength="16" class="foreground">  </text><text x="16" textLength="160" class="color3">root@easydomaintest </text><text x="176" textLength="168" class="color0">&#57520; /home/sys-sgn/recs </text><text x="344" textLength="8" class="color4">&#57520;</text><text x="352" textLength="112" class="foreground"> systemctl sta</text><text x="464" textLength="8" class="background"> </text><text x="472" textLength="824" class="foreground">                                                                                                       </text></g><g id="g14"><text x="0" textLength="16" class="foreground">  </text><text x="16" textLength="160" class="color3">root@easydomaintest </text><text x="176" textLength="168" class="color0">&#57520; /home/sys-sgn/recs </text><text x="344" textLength="8" class="color4">&#57520;</text><text x="352" textLength="120" class="foreground"> systemctl star</text><text x="472" textLength="8" class="background"> </text><text x="480" textLength="816" class="foreground">                                                                                                      </text></g><g id="g15"><text x="0" textLength="16" class="foreground">  </text><text x="16" textLength="160" class="color3">root@easydomaintest </text><text x="176" textLength="168" class="color0">&#57520; /home/sys-sgn/recs </text><text x="344" textLength="8" class="color4">&#57520;</text><text x="352" textLength="128" class="foreground"> systemctl start</text><text x="480" textLength="8" class="background"> </text><text x="488" textLength="808" class="foreground">                                                                                                     </text></g><g id="g16"><text x="0" textLength="16" class="foreground">  </text><text x="16" textLength="160" class="color3">root@easydomaintest </text><text x="176" textLength="168" class="color0">&#57520; /home/sys-sgn/recs </text><text x="344" textLength="8" class="color4">&#57520;</text><text x="352" textLength="136" class="foreground"> systemctl start </text><text x="488" textLength="8" class="background"> </text><text x="496" textLength="800" class="foreground">                                                                                                    </text></g><g id="g17"><text x="0" textLength="16" class="foreground">  </text><text x="16" textLength="160" class="color3">root@easydomaintest </text><text x="176" textLength="168" class="color0">&#57520; /home/sys-sgn/recs </text><text x="344" textLength="8" class="color4">&#57520;</text><text x="352" textLength="144" class="foreground"> systemctl start p</text><text x="496" textLength="8" class="background"> </text><text x="504" textLength="792" class="foreground">                                                                                                   </text></g><g id="g18"><text x="0" textLength="16" class="foreground">  </text><text x="16" textLength="160" class="color3">root@easydomaintest </text><text x="176" textLength="168" class="color0">&#57520; /home/sys-sgn/recs </text><text x="344" textLength="8" class="color4">&#57520;</text><text x="352" textLength="152" class="foreground"> systemctl start pd</text><text x="504" textLength="8" class="background"> </text><text x="512" textLength="784" class="foreground">                                                                                                  </text></g><g id="g19"><text x="0" textLength="16" class="foreground">  </text><text x="16" textLength="160" class="color3">root@easydomaintest </text><text x="176" textLength="168" class="color0">&#57520; /home/sys-sgn/recs </text><text x="344" textLength="8" class="color4">&#57520;</text><text x="352" textLength="160" class="foreground"> systemctl start pdn</text><text x="512" textLength="8" class="background"> </text><text x="520" textLength="776" class="foreground">                                                                                                 </text></g><g id="g20"><text x="0" textLength="16" class="foreground">  </text><text x="16" textLength="160" class="color3">root@easydomaintest </text><text x="176" textLength="168" class="color0">&#57520; /home/sys-sgn/recs </text><text x="344" textLength="8" class="color4">&#57520;</text><text x="352" textLength="168" class="foreground"> systemctl start pdns</text><text x="520" textLength="8" class="background"> </text><text x="528" textLength="768" class="foreground">                                                                                                </text></g><g id="g21"><text x="0" textLength="16" class="foreground">  </text><text x="16" textLength="160" class="color3">root@easydomaintest </text><text x="176" textLength="168" class="color0">&#57520; /home/sys-sgn/recs </text><text x="344" textLength="8" class="color4">&#57520;</text><text x="352" textLength="944" class="foreground"> systemctl start pdns                                                                                                 </text></g><g id="g22"><text x="0" textLength="8" class="background"> </text></g><g id="g23"><text x="0" textLength="16" class="foreground">  </text><text x="16" textLength="160" class="color3">root@easydomaintest </text><text x="176" textLength="168" class="color0">&#57520; /home/sys-sgn/recs </text><text x="344" textLength="8" class="color4">&#57520;</text><text x="352" textLength="8" class="foreground"> </text><text x="360" textLength="176" class="background">ss -alnp4 | grep pdns </text><text x="536" textLength="760" class="foreground">                                                                                               </text></g><g id="g24"><text x="0" textLength="16" class="foreground">  </text><text x="16" textLength="160" class="color3">root@easydomaintest </text><text x="176" textLength="168" class="color0">&#57520; /home/sys-sgn/recs </text><text x="344" textLength="8" class="color4">&#57520;</text><text x="352" textLength="176" class="foreground"> ss -alnp4 | grep pdns</text><text x="528" textLength="8" class="background"> </text><text x="536" textLength="760" class="foreground">                                                                                               </text></g><g id="g25"><text x="0" textLength="16" class="foreground">  </text><text x="16" textLength="160" class="color3">root@easydomaintest </text><text x="176" textLength="168" class="color0">&#57520; /home/sys-sgn/recs </text><text x="344" textLength="8" class="color4">&#57520;</text><text x="352" textLength="944" class="foreground"> ss -alnp4 | grep pdns                                                                                                </text></g><g id="g26"><text x="0" textLength="720" class="foreground">udp     UNCONN   0        0                0.0.0.0:17740          0.0.0.0:*      users:(("</text><text x="720" textLength="32" font-weight="bold" class="color9">pdns</text><text x="752" textLength="544" class="foreground">_server",pid=105211,fd=20))                                         </text></g><g id="g27"><text x="0" textLength="720" class="foreground">udp     UNCONN   0        0                0.0.0.0:53             0.0.0.0:*      users:(("</text><text x="720" textLength="32" font-weight="bold" class="color9">pdns</text><text x="752" textLength="544" class="foreground">_server",pid=105211,fd=5))                                          </text></g><g id="g28"><text x="0" textLength="720" class="foreground">tcp     LISTEN   0        10             127.0.0.1:8081           0.0.0.0:*      users:(("</text><text x="720" textLength="32" font-weight="bold" class="color9">pdns</text><text x="752" textLength="544" class="foreground">_server",pid=105211,fd=9))                                          </text></g><g id="g29"><text x="0" textLength="720" class="foreground">tcp     LISTEN   0        128              0.0.0.0:53             0.0.0.0:*      users:(("</text><text x="720" textLength="32" font-weight="bold" class="color9">pdns</text><text x="752" textLength="544" class="foreground">_server",pid=105211,fd=7))                                          </text></g><g id="g30"><text x="0" textLength="16" class="foreground">  </text><text x="16" textLength="160" class="color3">root@easydomaintest </text><text x="176" textLength="168" class="color0">&#57520; /home/sys-sgn/recs </text><text x="344" textLength="8" class="color4">&#57520;</text><text x="352" textLength="944" class="foreground">                                                                                                                      </text></g></defs><g id="screen_view"><g><rect x="0" y="0" width="8" height="17" class="foreground"/><use xlink:href="#g1" y="0"/></g><g><rect x="0" y="884" width="176" height="17" class="color0"/><rect x="176" y="884" width="168" height="17" class="color4"/><rect x="360" y="884" width="8" height="17" class="foreground"/><use xlink:href="#g2" y="884"/></g><g><rect x="0" y="1768" width="176" height="17" class="color0"/><rect x="176" y="1768" width="168" height="17" class="color4"/><rect x="360" y="1768" width="8" height="17" class="foreground"/><use xlink:href="#g2" y="1768"/></g><g><rect x="0" y="2652" width="176" height="17" class="color0"/><rect x="176" y="2652" width="168" height="17" class="color4"/><rect x="432" y="2652" width="8" height="17" class="foreground"/><use xlink:href="#g3" y="2652"/></g><g><rect x="0" y="3536" width="176" height="17" class="color0"/><rect x="176" y="3536" width="168" height="17" class="color4"/><rect x="760" y="3536" width="8" height="17" class="foreground"/><use xlink:href="#g4" y="3536"/></g><g><rect x="0" y="4420" width="176" height="17" class="color0"/><rect x="176" y="4420" width="168" height="17" class="color4"/><rect x="512" y="4420" width="8" height="17" class="foreground"/><use xlink:href="#g5" y="4420"/></g><g><rect x="0" y="5304" width="176" height="17" class="color0"/><rect x="176" y="5304" width="168" height="17" class="color4"/><rect x="504" y="5304" width="8" height="17" class="foreground"/><use xlink:href="#g6" y="5304"/></g><g><rect x="0" y="6188" width="176" height="17" class="color0"/><rect x="176" y="6188" width="168" height="17" class="color4"/><rect x="496" y="6188" width="8" height="17" class="foreground"/><use xlink:href="#g7" y="6188"/></g><g><rect x="0" y="7072" width="176" height="17" class="color0"/><rect x="176" y="7072" width="168" height="17" class="color4"/><rect x="488" y="7072" width="8" height="17" class="foreground"/><use xlink:href="#g8" y="7072"/></g><g><rect x="0" y="7956" width="176" height="17" class="color0"/><rect x="176" y="7956" width="168" height="17" class="color4"/><rect x="480" y="7956" width="8" height="17" class="foreground"/><use xlink:href="#g9" y="7956"/></g><g><rect x="0" y="8840" width="176" height="17" class="color0"/><rect x="176" y="8840" width="168" height="17" class="color4"/><rect x="472" y="8840" width="8" height="17" class="foreground"/><use xlink:href="#g10" y="8840"/></g><g><rect x="0" y="9724" width="176" height="17" class="color0"/><rect x="176" y="9724" width="168" height="17" class="color4"/><rect x="464" y="9724" width="8" height="17" class="foreground"/><use xlink:href="#g11" y="9724"/></g><g><rect x="0" y="10608" width="176" height="17" class="color0"/><rect x="176" y="10608" width="168" height="17" class="color4"/><rect x="456" y="10608" width="8" height="17" class="foreground"/><use xlink:href="#g12" y="10608"/></g><g><rect x="0" y="11492" width="176" height="17" class="color0"/><rect x="176" y="11492" width="168" height="17" class="color4"/><rect x="464" y="11492" width="8" height="17" class="foreground"/><use xlink:href="#g13" y="11492"/></g><g><rect x="0" y="12376" width="176" height="17" class="color0"/><rect x="176" y="12376" width="168" height="17" class="color4"/><rect x="472" y="12376" width="8" height="17" class="foreground"/><use xlink:href="#g14" y="12376"/></g><g><rect x="0" y="13260" width="176" height="17" class="color0"/><rect x="176" y="13260" width="168" height="17" class="color4"/><rect x="480" y="13260" width="8" height="17" class="foreground"/><use xlink:href="#g15" y="13260"/></g><g><rect x="0" y="14144" width="176" height="17" class="color0"/><rect x="176" y="14144" width="168" height="17" class="color4"/><rect x="488" y="14144" width="8" height="17" class="foreground"/><use xlink:href="#g16" y="14144"/></g><g><rect x="0" y="15028" width="176" height="17" class="color0"/><rect x="176" y="15028" width="168" height="17" class="color4"/><rect x="496" y="15028" width="8" height="17" class="foreground"/><use xlink:href="#g17" y="15028"/></g><g><rect x="0" y="15912" width="176" height="17" class="color0"/><rect x="176" y="15912" width="168" height="17" class="color4"/><rect x="504" y="15912" width="8" height="17" class="foreground"/><use xlink:href="#g18" y="15912"/></g><g><rect x="0" y="16796" width="176" height="17" class="color0"/><rect x="176" y="16796" width="168" height="17" class="color4"/><rect x="512" y="16796" width="8" height="17" class="foreground"/><use xlink:href="#g19" y="16796"/></g><g><rect x="0" y="17680" width="176" height="17" class="color0"/><rect x="176" y="17680" width="168" height="17" class="color4"/><rect x="520" y="17680" width="8" height="17" class="foreground"/><use xlink:href="#g20" y="17680"/></g><g><rect x="0" y="18564" width="176" height="17" class="color0"/><rect x="176" y="18564" width="168" height="17" class="color4"/><rect x="520" y="18564" width="8" height="17" class="foreground"/><use xlink:href="#g20" y="18564"/></g><g><rect x="0" y="19448" width="176" height="17" class="color0"/><rect x="176" y="19448" width="168" height="17" class="color4"/><use xlink:href="#g21" y="19448"/><rect x="0" y="19465" width="8" height="17" class="foreground"/><use xlink:href="#g22" y="19465"/></g><g><rect x="0" y="20332" width="176" height="17" class="color0"/><rect x="176" y="20332" width="168" height="17" class="color4"/><use xlink:href="#g21" y="20332"/><rect x="0" y="20349" width="8" height="17" class="foreground"/><use xlink:href="#g1" y="20349"/></g><g><rect x="0" y="21216" width="176" height="17" class="color0"/><rect x="176" y="21216" width="168" height="17" class="color4"/><use xlink:href="#g21" y="21216"/><rect x="0" y="21233" width="176" height="17" class="color0"/><rect x="176" y="21233" width="168" height="17" class="color4"/><rect x="360" y="21233" width="8" height="17" class="foreground"/><use xlink:href="#g2" y="21233"/></g><g><rect x="0" y="22100" width="176" height="17" class="color0"/><rect x="176" y="22100" width="168" height="17" class="color4"/><use xlink:href="#g21" y="22100"/><rect x="0" y="22117" width="176" height="17" class="color0"/><rect x="176" y="22117" width="168" height="17" class="color4"/><rect x="360" y="22117" width="8" height="17" class="foreground"/><use xlink:href="#g2" y="22117"/></g><g><rect x="0" y="22984" width="176" height="17" class="color0"/><rect x="176" y="22984" width="168" height="17" class="color4"/><use xlink:href="#g21" y="22984"/><rect x="0" y="23001" width="176" height="17" class="color0"/><rect x="176" y="23001" width="168" height="17" class="color4"/><rect x="360" y="23001" width="176" height="17" class="foreground"/><use xlink:href="#g23" y="23001"/></g><g><rect x="0" y="23868" width="176" height="17" class="color0"/><rect x="176" y="23868" width="168" height="17" class="color4"/><use xlink:href="#g21" y="23868"/><rect x="0" y="23885" width="176" height="17" class="color0"/><rect x="176" y="23885" width="168" height="17" class="color4"/><rect x="528" y="23885" width="8" height="17" class="foreground"/><use xlink:href="#g24" y="23885"/></g><g><rect x="0" y="24752" width="176" height="17" class="color0"/><rect x="176" y="24752" width="168" height="17" class="color4"/><use xlink:href="#g21" y="24752"/><rect x="0" y="24769" width="176" height="17" class="color0"/><rect x="176" y="24769" width="168" height="17" class="color4"/><use xlink:href="#g25" y="24769"/><rect x="0" y="24786" width="8" height="17" class="foreground"/><use xlink:href="#g22" y="24786"/></g><g><rect x="0" y="25636" width="176" height="17" class="color0"/><rect x="176" y="25636" width="168" height="17" class="color4"/><use xlink:href="#g21" y="25636"/><rect x="0" y="25653" width="176" height="17" class="color0"/><rect x="176" y="25653" width="168" height="17" class="color4"/><use xlink:href="#g25" y="25653"/><use xlink:href="#g26" y="25670"/><use xlink:href="#g27" y="25687"/><rect x="0" y="25704" width="8" height="17" class="foreground"/><use xlink:href="#g22" y="25704"/></g><g><rect x="0" y="26520" width="176" height="17" class="color0"/><rect x="176" y="26520" width="168" height="17" class="color4"/><use xlink:href="#g21" y="26520"/><rect x="0" y="26537" width="176" height="17" class="color0"/><rect x="176" y="26537" width="168" height="17" class="color4"/><use xlink:href="#g25" y="26537"/><use xlink:href="#g26" y="26554"/><use xlink:href="#g27" y="26571"/><use xlink:href="#g28" y="26588"/><use xlink:href="#g29" y="26605"/><rect x="0" y="26622" width="8" height="17" class="foreground"/><use xlink:href="#g1" y="26622"/></g><g><rect x="0" y="27404" width="176" height="17" class="color0"/><rect x="176" y="27404" width="168" height="17" class="color4"/><use xlink:href="#g21" y="27404"/><rect x="0" y="27421" width="176" height="17" class="color0"/><rect x="176" y="27421" width="168" height="17" class="color4"/><use xlink:href="#g25" y="27421"/><use xlink:href="#g26" y="27438"/><use xlink:href="#g27" y="27455"/><use xlink:href="#g28" y="27472"/><use xlink:href="#g29" y="27489"/><rect x="0" y="27506" width="176" height="17" class="color0"/><rect x="176" y="27506" width="168" height="17" class="color4"/><rect x="360" y="27506" width="8" height="17" class="foreground"/><use xlink:href="#g2" y="27506"/></g><g><rect x="0" y="28288" width="176" height="17" class="color0"/><rect x="176" y="28288" width="168" height="17" class="color4"/><use xlink:href="#g21" y="28288"/><rect x="0" y="28305" width="176" height="17" class="color0"/><rect x="176" y="28305" width="168" height="17" class="color4"/><use xlink:href="#g25" y="28305"/><use xlink:href="#g26" y="28322"/><use xlink:href="#g27" y="28339"/><use xlink:href="#g28" y="28356"/><use xlink:href="#g29" y="28373"/><rect x="0" y="28390" width="176" height="17" class="color0"/><rect x="176" y="28390" width="168" height="17" class="color4"/><use xlink:href="#g30" y="28390"/><rect x="0" y="28407" width="8" height="17" class="foreground"/><use xlink:href="#g22" y="28407"/></g></g></svg>
</svg>
