<svg xmlns="http://www.w3.org/2000/svg" xmlns:xlink="http://www.w3.org/1999/xlink" id="terminal" width="1296" height="120" baseProfile="full" version="1.1" viewBox="0 0 1296 120"><defs><termtosvg:template_settings xmlns:termtosvg="https://github.com/nbedos/termtosvg"><termtosvg:screen_geometry columns="162" rows="50"/><termtosvg:animation type="css"/></termtosvg:template_settings><style id="generated-style" type="text/css">@keyframes roll{0%{transform:translateY(0)}.096%{transform:translateY(-884px)}.139%{transform:translateY(-1768px)}3.298%{transform:translateY(-2652px)}5.348%{transform:translateY(-3536px)}11.507%{transform:translateY(-4420px)}16.524%{transform:translateY(-5304px)}21.061%{transform:translateY(-6188px)}22.78%{transform:translateY(-7072px)}24.498%{transform:translateY(-7956px)}26.185%{transform:translateY(-8840px)}27.85%{transform:translateY(-9724px)}29.526%{transform:translateY(-10608px)}32.088%{transform:translateY(-11492px)}35.728%{transform:translateY(-12376px)}38.599%{transform:translateY(-13260px)}41.674%{transform:translateY(-14144px)}43.745%{transform:translateY(-15028px)}46.403%{transform:translateY(-15912px)}48.111%{transform:translateY(-16796px)}50.011%{transform:translateY(-17680px)}54.579%{transform:translateY(-18564px)}54.59%{transform:translateY(-19448px)}55.807%{transform:translateY(-20332px)}55.903%{transform:translateY(-21216px)}55.956%{transform:translateY(-22100px)}65.446%{transform:translateY(-22984px)}72.257%{transform:translateY(-23868px)}72.289%{transform:translateY(-24752px)}72.556%{transform:translateY(-25636px)}72.598%{transform:translateY(-26520px)}72.694%{transform:translateY(-27404px)}89.325%{transform:translateY(-28288px)}}#screen{font-family:&apos;DejaVu Sans Mono&apos;,monospace;font-style:normal;font-size:14px}text{dominant-baseline:text-before-edge;white-space:pre}:root{--animation-duration:9368ms}#screen_view{animation-duration:9368ms;animation-iteration-count:infinite;animation-name:roll;animation-timing-function:steps(1,end);animation-fill-mode:forwards}</style><style id="user-style" type="text/css">.foreground{fill:#ccc}.background,.color0{fill:#0c0c0c}.color3{fill:#c19c00}.color4{fill:#0037da}.color9{fill:#e74856}</style></defs><svg id="screen" width="1296" height="120" preserveAspectRatio="xMidYMin slice" viewBox="0 0 1296 120"><rect width="100%" height="100%" x="0" y="0" class="background"/><defs><g id="g2"><text x="16" class="color3" textLength="160">root@easydomaintest</text><text x="176" class="color0" textLength="168"> /home/sys-sgn/recs</text><text x="344" class="color4" textLength="8"></text></g><g id="g3"><text x="16" class="color3" textLength="160">root@easydomaintest</text><text x="176" class="color0" textLength="168"> /home/sys-sgn/recs</text><text x="344" class="color4" textLength="8"></text><text x="352" class="foreground" textLength="80">termtosvg</text></g><g id="g4"><text x="16" class="color3" textLength="160">root@easydomaintest</text><text x="176" class="color0" textLength="168"> /home/sys-sgn/recs</text><text x="344" class="color4" textLength="8"></text><text x="352" class="foreground" textLength="408">pdns_server --daemon=no --guardian=no --loglevel=9</text></g><g id="g5"><text x="16" class="color3" textLength="160">root@easydomaintest</text><text x="176" class="color0" textLength="168"> /home/sys-sgn/recs</text><text x="344" class="color4" textLength="8"></text><text x="352" class="foreground" textLength="160">systemctl stop pdns</text></g><g id="g6"><text x="16" class="color3" textLength="160">root@easydomaintest</text><text x="176" class="color0" textLength="168"> /home/sys-sgn/recs</text><text x="344" class="color4" textLength="8"></text><text x="352" class="foreground" textLength="152">systemctl stop pdn</text></g><g id="g7"><text x="16" class="color3" textLength="160">root@easydomaintest</text><text x="176" class="color0" textLength="168"> /home/sys-sgn/recs</text><text x="344" class="color4" textLength="8"></text><text x="352" class="foreground" textLength="144">systemctl stop pd</text></g><g id="g8"><text x="16" class="color3" textLength="160">root@easydomaintest</text><text x="176" class="color0" textLength="168"> /home/sys-sgn/recs</text><text x="344" class="color4" textLength="8"></text><text x="352" class="foreground" textLength="136">systemctl stop p</text></g><g id="g9"><text x="16" class="color3" textLength="160">root@easydomaintest</text><text x="176" class="color0" textLength="168"> /home/sys-sgn/recs</text><text x="344" class="color4" textLength="8"></text><text x="352" class="foreground" textLength="128">systemctl stop</text></g><g id="g10"><text x="16" class="color3" textLength="160">root@easydomaintest</text><text x="176" class="color0" textLength="168"> /home/sys-sgn/recs</text><text x="344" class="color4" textLength="8"></text><text x="352" class="foreground" textLength="120">systemctl stop</text></g><g id="g11"><text x="16" class="color3" textLength="160">root@easydomaintest</text><text x="176" class="color0" textLength="168"> /home/sys-sgn/recs</text><text x="344" class="color4" textLength="8"></text><text x="352" class="foreground" textLength="112">systemctl sto</text></g><g id="g12"><text x="16" class="color3" textLength="160">root@easydomaintest</text><text x="176" class="color0" textLength="168"> /home/sys-sgn/recs</text><text x="344" class="color4" textLength="8"></text><text x="352" class="foreground" textLength="104">systemctl st</text></g><g id="g13"><text x="16" class="color3" textLength="160">root@easydomaintest</text><text x="176" class="color0" textLength="168"> /home/sys-sgn/recs</text><text x="344" class="color4" textLength="8"></text><text x="352" class="foreground" textLength="112">systemctl sta</text></g><g id="g14"><text x="16" class="color3" textLength="160">root@easydomaintest</text><text x="176" class="color0" textLength="168"> /home/sys-sgn/recs</text><text x="344" class="color4" textLength="8"></text><text x="352" class="foreground" textLength="120">systemctl star</text></g><g id="g15"><text x="16" class="color3" textLength="160">root@easydomaintest</text><text x="176" class="color0" textLength="168"> /home/sys-sgn/recs</text><text x="344" class="color4" textLength="8"></text><text x="352" class="foreground" textLength="128">systemctl start</text></g><g id="g16"><text x="16" class="color3" textLength="160">root@easydomaintest</text><text x="176" class="color0" textLength="168"> /home/sys-sgn/recs</text><text x="344" class="color4" textLength="8"></text><text x="352" class="foreground" textLength="136">systemctl start</text></g><g id="g17"><text x="16" class="color3" textLength="160">root@easydomaintest</text><text x="176" class="color0" textLength="168"> /home/sys-sgn/recs</text><text x="344" class="color4" textLength="8"></text><text x="352" class="foreground" textLength="144">systemctl start p</text></g><g id="g18"><text x="16" class="color3" textLength="160">root@easydomaintest</text><text x="176" class="color0" textLength="168"> /home/sys-sgn/recs</text><text x="344" class="color4" textLength="8"></text><text x="352" class="foreground" textLength="152">systemctl start pd</text></g><g id="g19"><text x="16" class="color3" textLength="160">root@easydomaintest</text><text x="176" class="color0" textLength="168"> /home/sys-sgn/recs</text><text x="344" class="color4" textLength="8"></text><text x="352" class="foreground" textLength="160">systemctl start pdn</text></g><g id="g20"><text x="16" class="color3" textLength="160">root@easydomaintest</text><text x="176" class="color0" textLength="168"> /home/sys-sgn/recs</text><text x="344" class="color4" textLength="8"></text><text x="352" class="foreground" textLength="168">systemctl start pdns</text></g><g id="g21"><text x="16" class="color3" textLength="160">root@easydomaintest</text><text x="176" class="color0" textLength="168"> /home/sys-sgn/recs</text><text x="344" class="color4" textLength="8"></text><text x="352" class="foreground" textLength="944">systemctl start pdns</text></g><g id="g23"><text x="16" class="color3" textLength="160">root@easydomaintest</text><text x="176" class="color0" textLength="168"> /home/sys-sgn/recs</text><text x="344" class="color4" textLength="8"></text><text x="360" class="background" textLength="176">ss -alnp4 | grep pdns</text></g><g id="g24"><text x="16" class="color3" textLength="160">root@easydomaintest</text><text x="176" class="color0" textLength="168"> /home/sys-sgn/recs</text><text x="344" class="color4" textLength="8"></text><text x="352" class="foreground" textLength="176">ss -alnp4 | grep pdns</text></g><g id="g25"><text x="16" class="color3" textLength="160">root@easydomaintest</text><text x="176" class="color0" textLength="168"> /home/sys-sgn/recs</text><text x="344" class="color4" textLength="8"></text><text x="352" class="foreground" textLength="944">ss -alnp4 | grep pdns</text></g><g id="g26"><text x="0" class="foreground" textLength="720">udp UNCONN 0 0 0.0.0.0:17740 0.0.0.0:* users:((&quot;</text><text x="720" class="color9" font-weight="bold" textLength="32">pdns</text><text x="752" class="foreground" textLength="544">_server&quot;,pid=105211,fd=20))</text></g><g id="g27"><text x="0" class="foreground" textLength="720">udp UNCONN 0 0 0.0.0.0:53 0.0.0.0:* users:((&quot;</text><text x="720" class="color9" font-weight="bold" textLength="32">pdns</text><text x="752" class="foreground" textLength="544">_server&quot;,pid=105211,fd=5))</text></g><g id="g28"><text x="0" class="foreground" textLength="720">tcp LISTEN 0 10 127.0.0.1:8081 0.0.0.0:* users:((&quot;</text><text x="720" class="color9" font-weight="bold" textLength="32">pdns</text><text x="752" class="foreground" textLength="544">_server&quot;,pid=105211,fd=9))</text></g><g id="g29"><text x="0" class="foreground" textLength="720">tcp LISTEN 0 128 0.0.0.0:53 0.0.0.0:* users:((&quot;</text><text x="720" class="color9" font-weight="bold" textLength="32">pdns</text><text x="752" class="foreground" textLength="544">_server&quot;,pid=105211,fd=7))</text></g><g id="g30"><text x="16" class="color3" textLength="160">root@easydomaintest</text><text x="176" class="color0" textLength="168"> /home/sys-sgn/recs</text><text x="344" class="color4" textLength="8"></text></g></defs><g id="screen_view"><g><rect width="8" height="17" x="0" y="0" class="foreground"/><use y="0" xlink:href="#g1"/></g><g><rect width="176" height="17" x="0" y="884" class="color0"/><rect width="168" height="17" x="176" y="884" class="color4"/><rect width="8" height="17" x="360" y="884" class="foreground"/><use y="884" xlink:href="#g2"/></g><g><rect width="176" height="17" x="0" y="1768" class="color0"/><rect width="168" height="17" x="176" y="1768" class="color4"/><rect width="8" height="17" x="360" y="1768" class="foreground"/><use y="1768" xlink:href="#g2"/></g><g><rect width="176" height="17" x="0" y="2652" class="color0"/><rect width="168" height="17" x="176" y="2652" class="color4"/><rect width="8" height="17" x="432" y="2652" class="foreground"/><use y="2652" xlink:href="#g3"/></g><g><rect width="176" height="17" x="0" y="3536" class="color0"/><rect width="168" height="17" x="176" y="3536" class="color4"/><rect width="8" height="17" x="760" y="3536" class="foreground"/><use y="3536" xlink:href="#g4"/></g><g><rect width="176" height="17" x="0" y="4420" class="color0"/><rect width="168" height="17" x="176" y="4420" class="color4"/><rect width="8" height="17" x="512" y="4420" class="foreground"/><use y="4420" xlink:href="#g5"/></g><g><rect width="176" height="17" x="0" y="5304" class="color0"/><rect width="168" height="17" x="176" y="5304" class="color4"/><rect width="8" height="17" x="504" y="5304" class="foreground"/><use y="5304" xlink:href="#g6"/></g><g><rect width="176" height="17" x="0" y="6188" class="color0"/><rect width="168" height="17" x="176" y="6188" class="color4"/><rect width="8" height="17" x="496" y="6188" class="foreground"/><use y="6188" xlink:href="#g7"/></g><g><rect width="176" height="17" x="0" y="7072" class="color0"/><rect width="168" height="17" x="176" y="7072" class="color4"/><rect width="8" height="17" x="488" y="7072" class="foreground"/><use y="7072" xlink:href="#g8"/></g><g><rect width="176" height="17" x="0" y="7956" class="color0"/><rect width="168" height="17" x="176" y="7956" class="color4"/><rect width="8" height="17" x="480" y="7956" class="foreground"/><use y="7956" xlink:href="#g9"/></g><g><rect width="176" height="17" x="0" y="8840" class="color0"/><rect width="168" height="17" x="176" y="8840" class="color4"/><rect width="8" height="17" x="472" y="8840" class="foreground"/><use y="8840" xlink:href="#g10"/></g><g><rect width="176" height="17" x="0" y="9724" class="color0"/><rect width="168" height="17" x="176" y="9724" class="color4"/><rect width="8" height="17" x="464" y="9724" class="foreground"/><use y="9724" xlink:href="#g11"/></g><g><rect width="176" height="17" x="0" y="10608" class="color0"/><rect width="168" height="17" x="176" y="10608" class="color4"/><rect width="8" height="17" x="456" y="10608" class="foreground"/><use y="10608" xlink:href="#g12"/></g><g><rect width="176" height="17" x="0" y="11492" class="color0"/><rect width="168" height="17" x="176" y="11492" class="color4"/><rect width="8" height="17" x="464" y="11492" class="foreground"/><use y="11492" xlink:href="#g13"/></g><g><rect width="176" height="17" x="0" y="12376" class="color0"/><rect width="168" height="17" x="176" y="12376" class="color4"/><rect width="8" height="17" x="472" y="12376" class="foreground"/><use y="12376" xlink:href="#g14"/></g><g><rect width="176" height="17" x="0" y="13260" class="color0"/><rect width="168" height="17" x="176" y="13260" class="color4"/><rect width="8" height="17" x="480" y="13260" class="foreground"/><use y="13260" xlink:href="#g15"/></g><g><rect width="176" height="17" x="0" y="14144" class="color0"/><rect width="168" height="17" x="176" y="14144" class="color4"/><rect width="8" height="17" x="488" y="14144" class="foreground"/><use y="14144" xlink:href="#g16"/></g><g><rect width="176" height="17" x="0" y="15028" class="color0"/><rect width="168" height="17" x="176" y="15028" class="color4"/><rect width="8" height="17" x="496" y="15028" class="foreground"/><use y="15028" xlink:href="#g17"/></g><g><rect width="176" height="17" x="0" y="15912" class="color0"/><rect width="168" height="17" x="176" y="15912" class="color4"/><rect width="8" height="17" x="504" y="15912" class="foreground"/><use y="15912" xlink:href="#g18"/></g><g><rect width="176" height="17" x="0" y="16796" class="color0"/><rect width="168" height="17" x="176" y="16796" class="color4"/><rect width="8" height="17" x="512" y="16796" class="foreground"/><use y="16796" xlink:href="#g19"/></g><g><rect width="176" height="17" x="0" y="17680" class="color0"/><rect width="168" height="17" x="176" y="17680" class="color4"/><rect width="8" height="17" x="520" y="17680" class="foreground"/><use y="17680" xlink:href="#g20"/></g><g><rect width="176" height="17" x="0" y="18564" class="color0"/><rect width="168" height="17" x="176" y="18564" class="color4"/><rect width="8" height="17" x="520" y="18564" class="foreground"/><use y="18564" xlink:href="#g20"/></g><g><rect width="176" height="17" x="0" y="19448" class="color0"/><rect width="168" height="17" x="176" y="19448" class="color4"/><use y="19448" xlink:href="#g21"/><rect width="8" height="17" x="0" y="19465" class="foreground"/><use y="19465" xlink:href="#g22"/></g><g><rect width="176" height="17" x="0" y="20332" class="color0"/><rect width="168" height="17" x="176" y="20332" class="color4"/><use y="20332" xlink:href="#g21"/><rect width="8" height="17" x="0" y="20349" class="foreground"/><use y="20349" xlink:href="#g1"/></g><g><rect width="176" height="17" x="0" y="21216" class="color0"/><rect width="168" height="17" x="176" y="21216" class="color4"/><use y="21216" xlink:href="#g21"/><rect width="176" height="17" x="0" y="21233" class="color0"/><rect width="168" height="17" x="176" y="21233" class="color4"/><rect width="8" height="17" x="360" y="21233" class="foreground"/><use y="21233" xlink:href="#g2"/></g><g><rect width="176" height="17" x="0" y="22100" class="color0"/><rect width="168" height="17" x="176" y="22100" class="color4"/><use y="22100" xlink:href="#g21"/><rect width="176" height="17" x="0" y="22117" class="color0"/><rect width="168" height="17" x="176" y="22117" class="color4"/><rect width="8" height="17" x="360" y="22117" class="foreground"/><use y="22117" xlink:href="#g2"/></g><g><rect width="176" height="17" x="0" y="22984" class="color0"/><rect width="168" height="17" x="176" y="22984" class="color4"/><use y="22984" xlink:href="#g21"/><rect width="176" height="17" x="0" y="23001" class="color0"/><rect width="168" height="17" x="176" y="23001" class="color4"/><rect width="176" height="17" x="360" y="23001" class="foreground"/><use y="23001" xlink:href="#g23"/></g><g><rect width="176" height="17" x="0" y="23868" class="color0"/><rect width="168" height="17" x="176" y="23868" class="color4"/><use y="23868" xlink:href="#g21"/><rect width="176" height="17" x="0" y="23885" class="color0"/><rect width="168" height="17" x="176" y="23885" class="color4"/><rect width="8" height="17" x="528" y="23885" class="foreground"/><use y="23885" xlink:href="#g24"/></g><g><rect width="176" height="17" x="0" y="24752" class="color0"/><rect width="168" height="17" x="176" y="24752" class="color4"/><use y="24752" xlink:href="#g21"/><rect width="176" height="17" x="0" y="24769" class="color0"/><rect width="168" height="17" x="176" y="24769" class="color4"/><use y="24769" xlink:href="#g25"/><rect width="8" height="17" x="0" y="24786" class="foreground"/><use y="24786" xlink:href="#g22"/></g><g><rect width="176" height="17" x="0" y="25636" class="color0"/><rect width="168" height="17" x="176" y="25636" class="color4"/><use y="25636" xlink:href="#g21"/><rect width="176" height="17" x="0" y="25653" class="color0"/><rect width="168" height="17" x="176" y="25653" class="color4"/><use y="25653" xlink:href="#g25"/><use y="25670" xlink:href="#g26"/><use y="25687" xlink:href="#g27"/><rect width="8" height="17" x="0" y="25704" class="foreground"/><use y="25704" xlink:href="#g22"/></g><g><rect width="176" height="17" x="0" y="26520" class="color0"/><rect width="168" height="17" x="176" y="26520" class="color4"/><use y="26520" xlink:href="#g21"/><rect width="176" height="17" x="0" y="26537" class="color0"/><rect width="168" height="17" x="176" y="26537" class="color4"/><use y="26537" xlink:href="#g25"/><use y="26554" xlink:href="#g26"/><use y="26571" xlink:href="#g27"/><use y="26588" xlink:href="#g28"/><use y="26605" xlink:href="#g29"/><rect width="8" height="17" x="0" y="26622" class="foreground"/><use y="26622" xlink:href="#g1"/></g><g><rect width="176" height="17" x="0" y="27404" class="color0"/><rect width="168" height="17" x="176" y="27404" class="color4"/><use y="27404" xlink:href="#g21"/><rect width="176" height="17" x="0" y="27421" class="color0"/><rect width="168" height="17" x="176" y="27421" class="color4"/><use y="27421" xlink:href="#g25"/><use y="27438" xlink:href="#g26"/><use y="27455" xlink:href="#g27"/><use y="27472" xlink:href="#g28"/><use y="27489" xlink:href="#g29"/><rect width="176" height="17" x="0" y="27506" class="color0"/><rect width="168" height="17" x="176" y="27506" class="color4"/><rect width="8" height="17" x="360" y="27506" class="foreground"/><use y="27506" xlink:href="#g2"/></g><g><rect width="176" height="17" x="0" y="28288" class="color0"/><rect width="168" height="17" x="176" y="28288" class="color4"/><use y="28288" xlink:href="#g21"/><rect width="176" height="17" x="0" y="28305" class="color0"/><rect width="168" height="17" x="176" y="28305" class="color4"/><use y="28305" xlink:href="#g25"/><use y="28322" xlink:href="#g26"/><use y="28339" xlink:href="#g27"/><use y="28356" xlink:href="#g28"/><use y="28373" xlink:href="#g29"/><rect width="176" height="17" x="0" y="28390" class="color0"/><rect width="168" height="17" x="176" y="28390" class="color4"/><use y="28390" xlink:href="#g30"/><rect width="8" height="17" x="0" y="28407" class="foreground"/><use y="28407" xlink:href="#g22"/></g></g></svg></svg>