<svg xmlns="http://www.w3.org/2000/svg" xmlns:xlink="http://www.w3.org/1999/xlink" id="terminal" width="1296" height="600" baseProfile="full" version="1.1" viewBox="0 0 1296 600"><defs><termtosvg:template_settings xmlns:termtosvg="https://github.com/nbedos/termtosvg"><termtosvg:screen_geometry columns="162" rows="40"/><termtosvg:animation type="css"/></termtosvg:template_settings><style id="generated-style" type="text/css">@keyframes roll{0%{transform:translateY(0)}.06%{transform:translateY(-884px)}.087%{transform:translateY(-1768px)}5.628%{transform:translateY(-2652px)}7.312%{transform:translateY(-3536px)}7.788%{transform:translateY(-4420px)}12.718%{transform:translateY(-5304px)}13.53%{transform:translateY(-6188px)}14.482%{transform:translateY(-7072px)}15.837%{transform:translateY(-7956px)}17.574%{transform:translateY(-8840px)}18.379%{transform:translateY(-9724px)}19.781%{transform:translateY(-10608px)}20.345%{transform:translateY(-11492px)}23.216%{transform:translateY(-12376px)}24.195%{transform:translateY(-13260px)}24.49%{transform:translateY(-14144px)}25.778%{transform:translateY(-15028px)}26.697%{transform:translateY(-15912px)}28.186%{transform:translateY(-16796px)}28.904%{transform:translateY(-17680px)}30.085%{transform:translateY(-18564px)}35.296%{transform:translateY(-19448px)}36.329%{transform:translateY(-20332px)}37.208%{transform:translateY(-21216px)}38.06%{transform:translateY(-22100px)}39.489%{transform:translateY(-22984px)}40.16%{transform:translateY(-23868px)}42.467%{transform:translateY(-24752px)}42.481%{transform:translateY(-25636px)}42.581%{transform:translateY(-26520px)}42.601%{transform:translateY(-27404px)}42.648%{transform:translateY(-28288px)}42.668%{transform:translateY(-29172px)}50.007%{transform:translateY(-30056px)}59.398%{transform:translateY(-30940px)}59.418%{transform:translateY(-31824px)}59.525%{transform:translateY(-32708px)}59.545%{transform:translateY(-33592px)}59.572%{transform:translateY(-34476px)}59.659%{transform:translateY(-35360px)}59.948%{transform:translateY(-36244px)}60.283%{transform:translateY(-37128px)}60.612%{transform:translateY(-38012px)}90.656%{transform:translateY(-38896px)}90.77%{transform:translateY(-39780px)}93.292%{transform:translateY(-40664px)}}#screen{font-family:&apos;DejaVu Sans Mono&apos;,monospace;font-style:normal;font-size:14px}text{dominant-baseline:text-before-edge;white-space:pre}:root{--animation-duration:14908ms}#screen_view{animation-duration:14908ms;animation-iteration-count:infinite;animation-name:roll;animation-timing-function:steps(1,end);animation-fill-mode:forwards}</style><style id="user-style" type="text/css">.foreground{fill:#ccc}.background,.color0{fill:#0c0c0c}.color1{fill:#c50f1f}.color3{fill:#c19c00}.color4{fill:#0037da}</style></defs><svg id="screen" width="1296" height="600" preserveAspectRatio="xMidYMin slice" viewBox="0 0 1296 600"><rect width="100%" height="100%" x="0" y="0" class="background"/><defs><g id="g2"><text x="16" class="color3" textLength="160">root@easydomaintest</text><text x="176" class="color0" textLength="168"> /home/sys-sgn/recs</text><text x="344" class="color4" textLength="8"></text></g><g id="g3"><text x="16" class="color3" textLength="160">root@easydomaintest</text><text x="176" class="color0" textLength="168"> /home/sys-sgn/recs</text><text x="344" class="color4" textLength="8"></text><text x="352" class="foreground" textLength="16">s</text></g><g id="g4"><text x="16" class="color3" textLength="160">root@easydomaintest</text><text x="176" class="color0" textLength="168"> /home/sys-sgn/recs</text><text x="344" class="color4" textLength="8"></text><text x="352" class="foreground" textLength="24">sy</text></g><g id="g5"><text x="16" class="color3" textLength="160">root@easydomaintest</text><text x="176" class="color0" textLength="168"> /home/sys-sgn/recs</text><text x="344" class="color4" textLength="8"></text><text x="352" class="foreground" textLength="32">sys</text></g><g id="g6"><text x="16" class="color3" textLength="160">root@easydomaintest</text><text x="176" class="color0" textLength="168"> /home/sys-sgn/recs</text><text x="344" class="color4" textLength="8"></text><text x="352" class="foreground" textLength="40">syst</text></g><g id="g7"><text x="16" class="color3" textLength="160">root@easydomaintest</text><text x="176" class="color0" textLength="168"> /home/sys-sgn/recs</text><text x="344" class="color4" textLength="8"></text><text x="352" class="foreground" textLength="48">syste</text></g><g id="g8"><text x="16" class="color3" textLength="160">root@easydomaintest</text><text x="176" class="color0" textLength="168"> /home/sys-sgn/recs</text><text x="344" class="color4" textLength="8"></text><text x="352" class="foreground" textLength="56">system</text></g><g id="g9"><text x="16" class="color3" textLength="160">root@easydomaintest</text><text x="176" class="color0" textLength="168"> /home/sys-sgn/recs</text><text x="344" class="color4" textLength="8"></text><text x="352" class="foreground" textLength="64">systemc</text></g><g id="g10"><text x="16" class="color3" textLength="160">root@easydomaintest</text><text x="176" class="color0" textLength="168"> /home/sys-sgn/recs</text><text x="344" class="color4" textLength="8"></text><text x="352" class="foreground" textLength="72">systemct</text></g><g id="g11"><text x="16" class="color3" textLength="160">root@easydomaintest</text><text x="176" class="color0" textLength="168"> /home/sys-sgn/recs</text><text x="344" class="color4" textLength="8"></text><text x="352" class="foreground" textLength="80">systemctl</text></g><g id="g12"><text x="16" class="color3" textLength="160">root@easydomaintest</text><text x="176" class="color0" textLength="168"> /home/sys-sgn/recs</text><text x="344" class="color4" textLength="8"></text><text x="352" class="foreground" textLength="88">systemctl</text></g><g id="g13"><text x="16" class="color3" textLength="160">root@easydomaintest</text><text x="176" class="color0" textLength="168"> /home/sys-sgn/recs</text><text x="344" class="color4" textLength="8"></text><text x="352" class="foreground" textLength="96">systemctl s</text></g><g id="g14"><text x="16" class="color3" textLength="160">root@easydomaintest</text><text x="176" class="color0" textLength="168"> /home/sys-sgn/recs</text><text x="344" class="color4" textLength="8"></text><text x="352" class="foreground" textLength="104">systemctl st</text></g><g id="g15"><text x="16" class="color3" textLength="160">root@easydomaintest</text><text x="176" class="color0" textLength="168"> /home/sys-sgn/recs</text><text x="344" class="color4" textLength="8"></text><text x="352" class="foreground" textLength="112">systemctl sto</text></g><g id="g16"><text x="16" class="color3" textLength="160">root@easydomaintest</text><text x="176" class="color0" textLength="168"> /home/sys-sgn/recs</text><text x="344" class="color4" textLength="8"></text><text x="352" class="foreground" textLength="120">systemctl stop</text></g><g id="g17"><text x="16" class="color3" textLength="160">root@easydomaintest</text><text x="176" class="color0" textLength="168"> /home/sys-sgn/recs</text><text x="344" class="color4" textLength="8"></text><text x="352" class="foreground" textLength="128">systemctl stop</text></g><g id="g18"><text x="16" class="color3" textLength="160">root@easydomaintest</text><text x="176" class="color0" textLength="168"> /home/sys-sgn/recs</text><text x="344" class="color4" textLength="8"></text><text x="352" class="foreground" textLength="136">systemctl stop p</text></g><g id="g19"><text x="16" class="color3" textLength="160">root@easydomaintest</text><text x="176" class="color0" textLength="168"> /home/sys-sgn/recs</text><text x="344" class="color4" textLength="8"></text><text x="352" class="foreground" textLength="144">systemctl stop pn</text></g><g id="g20"><text x="16" class="color3" textLength="160">root@easydomaintest</text><text x="176" class="color0" textLength="168"> /home/sys-sgn/recs</text><text x="344" class="color4" textLength="8"></text><text x="352" class="foreground" textLength="152">systemctl stop pnd</text></g><g id="g21"><text x="16" class="color3" textLength="160">root@easydomaintest</text><text x="176" class="color0" textLength="168"> /home/sys-sgn/recs</text><text x="344" class="color4" textLength="8"></text><text x="352" class="foreground" textLength="160">systemctl stop pnds</text></g><g id="g22"><text x="16" class="color3" textLength="160">root@easydomaintest</text><text x="176" class="color0" textLength="168"> /home/sys-sgn/recs</text><text x="344" class="color4" textLength="8"></text><text x="352" class="foreground" textLength="144">systemctl stop pd</text></g><g id="g23"><text x="16" class="color3" textLength="160">root@easydomaintest</text><text x="176" class="color0" textLength="168"> /home/sys-sgn/recs</text><text x="344" class="color4" textLength="8"></text><text x="352" class="foreground" textLength="152">systemctl stop pdn</text></g><g id="g24"><text x="16" class="color3" textLength="160">root@easydomaintest</text><text x="176" class="color0" textLength="168"> /home/sys-sgn/recs</text><text x="344" class="color4" textLength="8"></text><text x="352" class="foreground" textLength="160">systemctl stop pdns</text></g><g id="g25"><text x="16" class="color3" textLength="160">root@easydomaintest</text><text x="176" class="color0" textLength="168"> /home/sys-sgn/recs</text><text x="344" class="color4" textLength="8"></text><text x="352" class="foreground" textLength="944">systemctl stop pdns</text></g><g id="g27"><text x="16" class="color3" textLength="160">root@easydomaintest</text><text x="176" class="color0" textLength="168"> /home/sys-sgn/recs</text><text x="344" class="color4" textLength="8"></text><text x="360" class="background" textLength="408">pdns_server --daemon=no --guardian=no --loglevel=9</text></g><g id="g28"><text x="16" class="color3" textLength="160">root@easydomaintest</text><text x="176" class="color0" textLength="168"> /home/sys-sgn/recs</text><text x="344" class="color4" textLength="8"></text><text x="352" class="foreground" textLength="408">pdns_server --daemon=no --guardian=no --loglevel=9</text></g><g id="g29"><text x="16" class="color3" textLength="160">root@easydomaintest</text><text x="176" class="color0" textLength="168"> /home/sys-sgn/recs</text><text x="344" class="color4" textLength="8"></text><text x="352" class="foreground" textLength="944">pdns_server --daemon=no --guardian=no --loglevel=9</text></g><g id="g30"><text x="0" class="foreground" textLength="592">Jun 27 11:01:56 Loading &apos;/usr/lib/x86_64-linux-gnu/pdns/libbindbackend.so&apos;</text></g><g id="g31"><text x="0" class="foreground" textLength="872">Jun 27 11:01:56 [bind2backend] This is the bind backend version 4.2.1 (with bind-dnssec-db support) reporting</text></g><g id="g32"><text x="0" class="foreground" textLength="608">Jun 27 11:01:56 Loading &apos;/usr/lib/x86_64-linux-gnu/pdns/libgmysqlbackend.so&apos;</text></g><g id="g33"><text x="0" class="foreground" textLength="656">Jun 27 11:01:56 [gmysqlbackend] This is the gmysql backend version 4.2.1 reporting</text></g><g id="g34"><text x="0" class="foreground" textLength="328">Jun 27 11:01:56 This is a standalone pdns</text></g><g id="g35"><text x="0" class="foreground" textLength="600">Jun 27 11:01:56 Listening on controlsocket in &apos;/var/run/pdns.controlsocket&apos;</text></g><g id="g36"><text x="0" class="foreground" textLength="368">Jun 27 11:01:56 UDP server bound to 0.0.0.0:53</text></g><g id="g37"><text x="0" class="foreground" textLength="360">Jun 27 11:01:56 UDPv6 server bound to [::]:53</text></g><g id="g38"><text x="0" class="foreground" textLength="368">Jun 27 11:01:56 TCP server bound to 0.0.0.0:53</text></g><g id="g39"><text x="0" class="foreground" textLength="360">Jun 27 11:01:56 TCPv6 server bound to [::]:53</text></g><g id="g40"><text x="0" class="foreground" textLength="648">Jun 27 11:01:56 PowerDNS Authoritative Server 4.2.1 (C) 2001-2019 PowerDNS.COM BV</text></g><g id="g41"><text x="0" class="foreground" textLength="536">Jun 27 11:01:56 Using 64-bits mode. Built using gcc 9.2.1 20200202.</text></g><g id="g42"><text x="0" class="foreground" textLength="1296">Jun 27 11:01:56 PowerDNS comes with ABSOLUTELY NO WARRANTY. This is free software, and you are welcome to redistribute it according to the terms of the GPL versio</text></g><g id="g43"><text x="0" class="foreground" textLength="32">n 2.</text></g><g id="g44"><text x="0" class="foreground" textLength="360">Jun 27 11:01:56 Set effective group id to 125</text></g><g id="g45"><text x="0" class="foreground" textLength="584">Jun 27 11:01:56 [webserver] Listening for HTTP requests on 127.0.0.1:8081</text></g><g id="g46"><text x="0" class="foreground" textLength="352">Jun 27 11:01:56 Set effective user id to 119</text></g><g id="g47"><text x="0" class="foreground" textLength="408">Jun 27 11:01:56 Master/slave communicator launching</text></g><g id="g48"><text x="0" class="foreground" textLength="408">Jun 27 11:01:56 Creating backend connection for TCP</text></g><g id="g49"><text x="0" class="foreground" textLength="576">Jun 27 11:01:56 [bindbackend] Parsing 0 domain(s), will report when done</text></g><g id="g50"><text x="0" class="foreground" textLength="640">Jun 27 11:01:56 [bindbackend] Done parsing domains, 0 rejected, 0 new, 0 removed</text></g><g id="g51"><text x="0" class="foreground" textLength="720">Jun 27 11:01:56 gmysql Connection successful. Connected to database &apos;pdns&apos; on &apos;127.0.0.1&apos;.</text></g><g id="g52"><text x="0" class="foreground" textLength="688">Jun 27 11:01:56 No new unfresh slave domains, 0 queued for AXFR already, 0 in progress</text></g><g id="g53"><text x="0" class="foreground" textLength="456">Jun 27 11:01:56 About to create 3 backend threads for UDP</text></g><g id="g54"><text x="0" class="foreground" textLength="416">Jun 27 11:01:56 No master domains need notifications</text></g><g id="g55"><text x="0" class="foreground" textLength="552">Jun 27 11:01:56 Done launching threads, ready to distribute questions</text></g><g id="g56"><text x="0" class="foreground" textLength="16">^C</text></g><g id="g57"><text x="0" class="foreground" textLength="16">^C</text></g><g id="g58"><text x="8" class="color1" textLength="16">✘</text><text x="32" class="color3" textLength="160">root@easydomaintest</text><text x="192" class="color0" textLength="168"> /home/sys-sgn/recs</text><text x="360" class="color4" textLength="8"></text></g><g id="g59"><text x="8" class="color1" textLength="16">✘</text><text x="32" class="color3" textLength="160">root@easydomaintest</text><text x="192" class="color0" textLength="168"> /home/sys-sgn/recs</text><text x="360" class="color4" textLength="8"></text></g></defs><g id="screen_view"><g><rect width="8" height="17" x="0" y="0" class="foreground"/><use y="0" xlink:href="#g1"/></g><g><rect width="176" height="17" x="0" y="884" class="color0"/><rect width="168" height="17" x="176" y="884" class="color4"/><rect width="8" height="17" x="360" y="884" class="foreground"/><use y="884" xlink:href="#g2"/></g><g><rect width="176" height="17" x="0" y="1768" class="color0"/><rect width="168" height="17" x="176" y="1768" class="color4"/><rect width="8" height="17" x="360" y="1768" class="foreground"/><use y="1768" xlink:href="#g2"/></g><g><rect width="176" height="17" x="0" y="2652" class="color0"/><rect width="168" height="17" x="176" y="2652" class="color4"/><rect width="8" height="17" x="368" y="2652" class="foreground"/><use y="2652" xlink:href="#g3"/></g><g><rect width="176" height="17" x="0" y="3536" class="color0"/><rect width="168" height="17" x="176" y="3536" class="color4"/><rect width="8" height="17" x="376" y="3536" class="foreground"/><use y="3536" xlink:href="#g4"/></g><g><rect width="176" height="17" x="0" y="4420" class="color0"/><rect width="168" height="17" x="176" y="4420" class="color4"/><rect width="8" height="17" x="384" y="4420" class="foreground"/><use y="4420" xlink:href="#g5"/></g><g><rect width="176" height="17" x="0" y="5304" class="color0"/><rect width="168" height="17" x="176" y="5304" class="color4"/><rect width="8" height="17" x="392" y="5304" class="foreground"/><use y="5304" xlink:href="#g6"/></g><g><rect width="176" height="17" x="0" y="6188" class="color0"/><rect width="168" height="17" x="176" y="6188" class="color4"/><rect width="8" height="17" x="400" y="6188" class="foreground"/><use y="6188" xlink:href="#g7"/></g><g><rect width="176" height="17" x="0" y="7072" class="color0"/><rect width="168" height="17" x="176" y="7072" class="color4"/><rect width="8" height="17" x="408" y="7072" class="foreground"/><use y="7072" xlink:href="#g8"/></g><g><rect width="176" height="17" x="0" y="7956" class="color0"/><rect width="168" height="17" x="176" y="7956" class="color4"/><rect width="8" height="17" x="416" y="7956" class="foreground"/><use y="7956" xlink:href="#g9"/></g><g><rect width="176" height="17" x="0" y="8840" class="color0"/><rect width="168" height="17" x="176" y="8840" class="color4"/><rect width="8" height="17" x="424" y="8840" class="foreground"/><use y="8840" xlink:href="#g10"/></g><g><rect width="176" height="17" x="0" y="9724" class="color0"/><rect width="168" height="17" x="176" y="9724" class="color4"/><rect width="8" height="17" x="432" y="9724" class="foreground"/><use y="9724" xlink:href="#g11"/></g><g><rect width="176" height="17" x="0" y="10608" class="color0"/><rect width="168" height="17" x="176" y="10608" class="color4"/><rect width="8" height="17" x="440" y="10608" class="foreground"/><use y="10608" xlink:href="#g12"/></g><g><rect width="176" height="17" x="0" y="11492" class="color0"/><rect width="168" height="17" x="176" y="11492" class="color4"/><rect width="8" height="17" x="448" y="11492" class="foreground"/><use y="11492" xlink:href="#g13"/></g><g><rect width="176" height="17" x="0" y="12376" class="color0"/><rect width="168" height="17" x="176" y="12376" class="color4"/><rect width="8" height="17" x="456" y="12376" class="foreground"/><use y="12376" xlink:href="#g14"/></g><g><rect width="176" height="17" x="0" y="13260" class="color0"/><rect width="168" height="17" x="176" y="13260" class="color4"/><rect width="8" height="17" x="464" y="13260" class="foreground"/><use y="13260" xlink:href="#g15"/></g><g><rect width="176" height="17" x="0" y="14144" class="color0"/><rect width="168" height="17" x="176" y="14144" class="color4"/><rect width="8" height="17" x="472" y="14144" class="foreground"/><use y="14144" xlink:href="#g16"/></g><g><rect width="176" height="17" x="0" y="15028" class="color0"/><rect width="168" height="17" x="176" y="15028" class="color4"/><rect width="8" height="17" x="480" y="15028" class="foreground"/><use y="15028" xlink:href="#g17"/></g><g><rect width="176" height="17" x="0" y="15912" class="color0"/><rect width="168" height="17" x="176" y="15912" class="color4"/><rect width="8" height="17" x="488" y="15912" class="foreground"/><use y="15912" xlink:href="#g18"/></g><g><rect width="176" height="17" x="0" y="16796" class="color0"/><rect width="168" height="17" x="176" y="16796" class="color4"/><rect width="8" height="17" x="496" y="16796" class="foreground"/><use y="16796" xlink:href="#g19"/></g><g><rect width="176" height="17" x="0" y="17680" class="color0"/><rect width="168" height="17" x="176" y="17680" class="color4"/><rect width="8" height="17" x="504" y="17680" class="foreground"/><use y="17680" xlink:href="#g20"/></g><g><rect width="176" height="17" x="0" y="18564" class="color0"/><rect width="168" height="17" x="176" y="18564" class="color4"/><rect width="8" height="17" x="512" y="18564" class="foreground"/><use y="18564" xlink:href="#g21"/></g><g><rect width="176" height="17" x="0" y="19448" class="color0"/><rect width="168" height="17" x="176" y="19448" class="color4"/><rect width="8" height="17" x="504" y="19448" class="foreground"/><use y="19448" xlink:href="#g20"/></g><g><rect width="176" height="17" x="0" y="20332" class="color0"/><rect width="168" height="17" x="176" y="20332" class="color4"/><rect width="8" height="17" x="496" y="20332" class="foreground"/><use y="20332" xlink:href="#g19"/></g><g><rect width="176" height="17" x="0" y="21216" class="color0"/><rect width="168" height="17" x="176" y="21216" class="color4"/><rect width="8" height="17" x="488" y="21216" class="foreground"/><use y="21216" xlink:href="#g18"/></g><g><rect width="176" height="17" x="0" y="22100" class="color0"/><rect width="168" height="17" x="176" y="22100" class="color4"/><rect width="8" height="17" x="496" y="22100" class="foreground"/><use y="22100" xlink:href="#g22"/></g><g><rect width="176" height="17" x="0" y="22984" class="color0"/><rect width="168" height="17" x="176" y="22984" class="color4"/><rect width="8" height="17" x="504" y="22984" class="foreground"/><use y="22984" xlink:href="#g23"/></g><g><rect width="176" height="17" x="0" y="23868" class="color0"/><rect width="168" height="17" x="176" y="23868" class="color4"/><rect width="8" height="17" x="512" y="23868" class="foreground"/><use y="23868" xlink:href="#g24"/></g><g><rect width="176" height="17" x="0" y="24752" class="color0"/><rect width="168" height="17" x="176" y="24752" class="color4"/><rect width="8" height="17" x="512" y="24752" class="foreground"/><use y="24752" xlink:href="#g24"/></g><g><rect width="176" height="17" x="0" y="25636" class="color0"/><rect width="168" height="17" x="176" y="25636" class="color4"/><use y="25636" xlink:href="#g25"/><rect width="8" height="17" x="0" y="25653" class="foreground"/><use y="25653" xlink:href="#g26"/></g><g><rect width="176" height="17" x="0" y="26520" class="color0"/><rect width="168" height="17" x="176" y="26520" class="color4"/><use y="26520" xlink:href="#g25"/><rect width="8" height="17" x="0" y="26537" class="foreground"/><use y="26537" xlink:href="#g1"/></g><g><rect width="176" height="17" x="0" y="27404" class="color0"/><rect width="168" height="17" x="176" y="27404" class="color4"/><use y="27404" xlink:href="#g25"/><rect width="8" height="17" x="0" y="27421" class="foreground"/><use y="27421" xlink:href="#g1"/></g><g><rect width="176" height="17" x="0" y="28288" class="color0"/><rect width="168" height="17" x="176" y="28288" class="color4"/><use y="28288" xlink:href="#g25"/><rect width="176" height="17" x="0" y="28305" class="color0"/><rect width="168" height="17" x="176" y="28305" class="color4"/><rect width="8" height="17" x="360" y="28305" class="foreground"/><use y="28305" xlink:href="#g2"/></g><g><rect width="176" height="17" x="0" y="29172" class="color0"/><rect width="168" height="17" x="176" y="29172" class="color4"/><use y="29172" xlink:href="#g25"/><rect width="176" height="17" x="0" y="29189" class="color0"/><rect width="168" height="17" x="176" y="29189" class="color4"/><rect width="8" height="17" x="360" y="29189" class="foreground"/><use y="29189" xlink:href="#g2"/></g><g><rect width="176" height="17" x="0" y="30056" class="color0"/><rect width="168" height="17" x="176" y="30056" class="color4"/><use y="30056" xlink:href="#g25"/><rect width="176" height="17" x="0" y="30073" class="color0"/><rect width="168" height="17" x="176" y="30073" class="color4"/><rect width="408" height="17" x="360" y="30073" class="foreground"/><use y="30073" xlink:href="#g27"/></g><g><rect width="176" height="17" x="0" y="30940" class="color0"/><rect width="168" height="17" x="176" y="30940" class="color4"/><use y="30940" xlink:href="#g25"/><rect width="176" height="17" x="0" y="30957" class="color0"/><rect width="168" height="17" x="176" y="30957" class="color4"/><rect width="8" height="17" x="760" y="30957" class="foreground"/><use y="30957" xlink:href="#g28"/></g><g><rect width="176" height="17" x="0" y="31824" class="color0"/><rect width="168" height="17" x="176" y="31824" class="color4"/><use y="31824" xlink:href="#g25"/><rect width="176" height="17" x="0" y="31841" class="color0"/><rect width="168" height="17" x="176" y="31841" class="color4"/><use y="31841" xlink:href="#g29"/><rect width="8" height="17" x="0" y="31858" class="foreground"/><use y="31858" xlink:href="#g26"/></g><g><rect width="176" height="17" x="0" y="32708" class="color0"/><rect width="168" height="17" x="176" y="32708" class="color4"/><use y="32708" xlink:href="#g25"/><rect width="176" height="17" x="0" y="32725" class="color0"/><rect width="168" height="17" x="176" y="32725" class="color4"/><use y="32725" xlink:href="#g29"/><use y="32742" xlink:href="#g30"/><rect width="8" height="17" x="0" y="32759" class="foreground"/><use y="32759" xlink:href="#g26"/></g><g><rect width="176" height="17" x="0" y="33592" class="color0"/><rect width="168" height="17" x="176" y="33592" class="color4"/><use y="33592" xlink:href="#g25"/><rect width="176" height="17" x="0" y="33609" class="color0"/><rect width="168" height="17" x="176" y="33609" class="color4"/><use y="33609" xlink:href="#g29"/><use y="33626" xlink:href="#g30"/><use y="33643" xlink:href="#g31"/><use y="33660" xlink:href="#g32"/><use y="33677" xlink:href="#g33"/><use y="33694" xlink:href="#g34"/><use y="33711" xlink:href="#g35"/><use y="33728" xlink:href="#g36"/><use y="33745" xlink:href="#g37"/><use y="33762" xlink:href="#g38"/><use y="33779" xlink:href="#g39"/><rect width="8" height="17" x="0" y="33796" class="foreground"/><use y="33796" xlink:href="#g26"/></g><g><rect width="176" height="17" x="0" y="34476" class="color0"/><rect width="168" height="17" x="176" y="34476" class="color4"/><use y="34476" xlink:href="#g25"/><rect width="176" height="17" x="0" y="34493" class="color0"/><rect width="168" height="17" x="176" y="34493" class="color4"/><use y="34493" xlink:href="#g29"/><use y="34510" xlink:href="#g30"/><use y="34527" xlink:href="#g31"/><use y="34544" xlink:href="#g32"/><use y="34561" xlink:href="#g33"/><use y="34578" xlink:href="#g34"/><use y="34595" xlink:href="#g35"/><use y="34612" xlink:href="#g36"/><use y="34629" xlink:href="#g37"/><use y="34646" xlink:href="#g38"/><use y="34663" xlink:href="#g39"/><use y="34680" xlink:href="#g40"/><use y="34697" xlink:href="#g41"/><use y="34714" xlink:href="#g42"/><use y="34731" xlink:href="#g43"/><use y="34748" xlink:href="#g44"/><use y="34765" xlink:href="#g45"/><use y="34782" xlink:href="#g46"/><use y="34799" xlink:href="#g47"/><use y="34816" xlink:href="#g48"/><use y="34833" xlink:href="#g49"/><use y="34850" xlink:href="#g50"/><rect width="8" height="17" x="0" y="34867" class="foreground"/><use y="34867" xlink:href="#g26"/></g><g><rect width="176" height="17" x="0" y="35360" class="color0"/><rect width="168" height="17" x="176" y="35360" class="color4"/><use y="35360" xlink:href="#g25"/><rect width="176" height="17" x="0" y="35377" class="color0"/><rect width="168" height="17" x="176" y="35377" class="color4"/><use y="35377" xlink:href="#g29"/><use y="35394" xlink:href="#g30"/><use y="35411" xlink:href="#g31"/><use y="35428" xlink:href="#g32"/><use y="35445" xlink:href="#g33"/><use y="35462" xlink:href="#g34"/><use y="35479" xlink:href="#g35"/><use y="35496" xlink:href="#g36"/><use y="35513" xlink:href="#g37"/><use y="35530" xlink:href="#g38"/><use y="35547" xlink:href="#g39"/><use y="35564" xlink:href="#g40"/><use y="35581" xlink:href="#g41"/><use y="35598" xlink:href="#g42"/><use y="35615" xlink:href="#g43"/><use y="35632" xlink:href="#g44"/><use y="35649" xlink:href="#g45"/><use y="35666" xlink:href="#g46"/><use y="35683" xlink:href="#g47"/><use y="35700" xlink:href="#g48"/><use y="35717" xlink:href="#g49"/><use y="35734" xlink:href="#g50"/><use y="35751" xlink:href="#g51"/><use y="35768" xlink:href="#g51"/><use y="35785" xlink:href="#g52"/><use y="35802" xlink:href="#g53"/><use y="35819" xlink:href="#g54"/><use y="35836" xlink:href="#g51"/><rect width="8" height="17" x="0" y="35853" class="foreground"/><use y="35853" xlink:href="#g26"/></g><g><rect width="176" height="17" x="0" y="36244" class="color0"/><rect width="168" height="17" x="176" y="36244" class="color4"/><use y="36244" xlink:href="#g25"/><rect width="176" height="17" x="0" y="36261" class="color0"/><rect width="168" height="17" x="176" y="36261" class="color4"/><use y="36261" xlink:href="#g29"/><use y="36278" xlink:href="#g30"/><use y="36295" xlink:href="#g31"/><use y="36312" xlink:href="#g32"/><use y="36329" xlink:href="#g33"/><use y="36346" xlink:href="#g34"/><use y="36363" xlink:href="#g35"/><use y="36380" xlink:href="#g36"/><use y="36397" xlink:href="#g37"/><use y="36414" xlink:href="#g38"/><use y="36431" xlink:href="#g39"/><use y="36448" xlink:href="#g40"/><use y="36465" xlink:href="#g41"/><use y="36482" xlink:href="#g42"/><use y="36499" xlink:href="#g43"/><use y="36516" xlink:href="#g44"/><use y="36533" xlink:href="#g45"/><use y="36550" xlink:href="#g46"/><use y="36567" xlink:href="#g47"/><use y="36584" xlink:href="#g48"/><use y="36601" xlink:href="#g49"/><use y="36618" xlink:href="#g50"/><use y="36635" xlink:href="#g51"/><use y="36652" xlink:href="#g51"/><use y="36669" xlink:href="#g52"/><use y="36686" xlink:href="#g53"/><use y="36703" xlink:href="#g54"/><use y="36720" xlink:href="#g51"/><use y="36737" xlink:href="#g51"/><rect width="8" height="17" x="0" y="36754" class="foreground"/><use y="36754" xlink:href="#g26"/></g><g><rect width="176" height="17" x="0" y="37128" class="color0"/><rect width="168" height="17" x="176" y="37128" class="color4"/><use y="37128" xlink:href="#g25"/><rect width="176" height="17" x="0" y="37145" class="color0"/><rect width="168" height="17" x="176" y="37145" class="color4"/><use y="37145" xlink:href="#g29"/><use y="37162" xlink:href="#g30"/><use y="37179" xlink:href="#g31"/><use y="37196" xlink:href="#g32"/><use y="37213" xlink:href="#g33"/><use y="37230" xlink:href="#g34"/><use y="37247" xlink:href="#g35"/><use y="37264" xlink:href="#g36"/><use y="37281" xlink:href="#g37"/><use y="37298" xlink:href="#g38"/><use y="37315" xlink:href="#g39"/><use y="37332" xlink:href="#g40"/><use y="37349" xlink:href="#g41"/><use y="37366" xlink:href="#g42"/><use y="37383" xlink:href="#g43"/><use y="37400" xlink:href="#g44"/><use y="37417" xlink:href="#g45"/><use y="37434" xlink:href="#g46"/><use y="37451" xlink:href="#g47"/><use y="37468" xlink:href="#g48"/><use y="37485" xlink:href="#g49"/><use y="37502" xlink:href="#g50"/><use y="37519" xlink:href="#g51"/><use y="37536" xlink:href="#g51"/><use y="37553" xlink:href="#g52"/><use y="37570" xlink:href="#g53"/><use y="37587" xlink:href="#g54"/><use y="37604" xlink:href="#g51"/><use y="37621" xlink:href="#g51"/><use y="37638" xlink:href="#g51"/><rect width="8" height="17" x="0" y="37655" class="foreground"/><use y="37655" xlink:href="#g26"/></g><g><rect width="176" height="17" x="0" y="38012" class="color0"/><rect width="168" height="17" x="176" y="38012" class="color4"/><use y="38012" xlink:href="#g25"/><rect width="176" height="17" x="0" y="38029" class="color0"/><rect width="168" height="17" x="176" y="38029" class="color4"/><use y="38029" xlink:href="#g29"/><use y="38046" xlink:href="#g30"/><use y="38063" xlink:href="#g31"/><use y="38080" xlink:href="#g32"/><use y="38097" xlink:href="#g33"/><use y="38114" xlink:href="#g34"/><use y="38131" xlink:href="#g35"/><use y="38148" xlink:href="#g36"/><use y="38165" xlink:href="#g37"/><use y="38182" xlink:href="#g38"/><use y="38199" xlink:href="#g39"/><use y="38216" xlink:href="#g40"/><use y="38233" xlink:href="#g41"/><use y="38250" xlink:href="#g42"/><use y="38267" xlink:href="#g43"/><use y="38284" xlink:href="#g44"/><use y="38301" xlink:href="#g45"/><use y="38318" xlink:href="#g46"/><use y="38335" xlink:href="#g47"/><use y="38352" xlink:href="#g48"/><use y="38369" xlink:href="#g49"/><use y="38386" xlink:href="#g50"/><use y="38403" xlink:href="#g51"/><use y="38420" xlink:href="#g51"/><use y="38437" xlink:href="#g52"/><use y="38454" xlink:href="#g53"/><use y="38471" xlink:href="#g54"/><use y="38488" xlink:href="#g51"/><use y="38505" xlink:href="#g51"/><use y="38522" xlink:href="#g51"/><use y="38539" xlink:href="#g55"/><rect width="8" height="17" x="0" y="38556" class="foreground"/><use y="38556" xlink:href="#g26"/></g><g><rect width="176" height="17" x="0" y="38896" class="color0"/><rect width="168" height="17" x="176" y="38896" class="color4"/><use y="38896" xlink:href="#g25"/><rect width="176" height="17" x="0" y="38913" class="color0"/><rect width="168" height="17" x="176" y="38913" class="color4"/><use y="38913" xlink:href="#g29"/><use y="38930" xlink:href="#g30"/><use y="38947" xlink:href="#g31"/><use y="38964" xlink:href="#g32"/><use y="38981" xlink:href="#g33"/><use y="38998" xlink:href="#g34"/><use y="39015" xlink:href="#g35"/><use y="39032" xlink:href="#g36"/><use y="39049" xlink:href="#g37"/><use y="39066" xlink:href="#g38"/><use y="39083" xlink:href="#g39"/><use y="39100" xlink:href="#g40"/><use y="39117" xlink:href="#g41"/><use y="39134" xlink:href="#g42"/><use y="39151" xlink:href="#g43"/><use y="39168" xlink:href="#g44"/><use y="39185" xlink:href="#g45"/><use y="39202" xlink:href="#g46"/><use y="39219" xlink:href="#g47"/><use y="39236" xlink:href="#g48"/><use y="39253" xlink:href="#g49"/><use y="39270" xlink:href="#g50"/><use y="39287" xlink:href="#g51"/><use y="39304" xlink:href="#g51"/><use y="39321" xlink:href="#g52"/><use y="39338" xlink:href="#g53"/><use y="39355" xlink:href="#g54"/><use y="39372" xlink:href="#g51"/><use y="39389" xlink:href="#g51"/><use y="39406" xlink:href="#g51"/><use y="39423" xlink:href="#g55"/><rect width="8" height="17" x="16" y="39440" class="foreground"/><use y="39440" xlink:href="#g56"/></g><g><rect width="176" height="17" x="0" y="39780" class="color0"/><rect width="168" height="17" x="176" y="39780" class="color4"/><use y="39780" xlink:href="#g25"/><rect width="176" height="17" x="0" y="39797" class="color0"/><rect width="168" height="17" x="176" y="39797" class="color4"/><use y="39797" xlink:href="#g29"/><use y="39814" xlink:href="#g30"/><use y="39831" xlink:href="#g31"/><use y="39848" xlink:href="#g32"/><use y="39865" xlink:href="#g33"/><use y="39882" xlink:href="#g34"/><use y="39899" xlink:href="#g35"/><use y="39916" xlink:href="#g36"/><use y="39933" xlink:href="#g37"/><use y="39950" xlink:href="#g38"/><use y="39967" xlink:href="#g39"/><use y="39984" xlink:href="#g40"/><use y="40001" xlink:href="#g41"/><use y="40018" xlink:href="#g42"/><use y="40035" xlink:href="#g43"/><use y="40052" xlink:href="#g44"/><use y="40069" xlink:href="#g45"/><use y="40086" xlink:href="#g46"/><use y="40103" xlink:href="#g47"/><use y="40120" xlink:href="#g48"/><use y="40137" xlink:href="#g49"/><use y="40154" xlink:href="#g50"/><use y="40171" xlink:href="#g51"/><use y="40188" xlink:href="#g51"/><use y="40205" xlink:href="#g52"/><use y="40222" xlink:href="#g53"/><use y="40239" xlink:href="#g54"/><use y="40256" xlink:href="#g51"/><use y="40273" xlink:href="#g51"/><use y="40290" xlink:href="#g51"/><use y="40307" xlink:href="#g55"/><use y="40324" xlink:href="#g57"/><rect width="192" height="17" x="0" y="40341" class="color0"/><rect width="168" height="17" x="192" y="40341" class="color4"/><rect width="8" height="17" x="376" y="40341" class="foreground"/><use y="40341" xlink:href="#g58"/></g><g><rect width="176" height="17" x="0" y="40664" class="color0"/><rect width="168" height="17" x="176" y="40664" class="color4"/><use y="40664" xlink:href="#g25"/><rect width="176" height="17" x="0" y="40681" class="color0"/><rect width="168" height="17" x="176" y="40681" class="color4"/><use y="40681" xlink:href="#g29"/><use y="40698" xlink:href="#g30"/><use y="40715" xlink:href="#g31"/><use y="40732" xlink:href="#g32"/><use y="40749" xlink:href="#g33"/><use y="40766" xlink:href="#g34"/><use y="40783" xlink:href="#g35"/><use y="40800" xlink:href="#g36"/><use y="40817" xlink:href="#g37"/><use y="40834" xlink:href="#g38"/><use y="40851" xlink:href="#g39"/><use y="40868" xlink:href="#g40"/><use y="40885" xlink:href="#g41"/><use y="40902" xlink:href="#g42"/><use y="40919" xlink:href="#g43"/><use y="40936" xlink:href="#g44"/><use y="40953" xlink:href="#g45"/><use y="40970" xlink:href="#g46"/><use y="40987" xlink:href="#g47"/><use y="41004" xlink:href="#g48"/><use y="41021" xlink:href="#g49"/><use y="41038" xlink:href="#g50"/><use y="41055" xlink:href="#g51"/><use y="41072" xlink:href="#g51"/><use y="41089" xlink:href="#g52"/><use y="41106" xlink:href="#g53"/><use y="41123" xlink:href="#g54"/><use y="41140" xlink:href="#g51"/><use y="41157" xlink:href="#g51"/><use y="41174" xlink:href="#g51"/><use y="41191" xlink:href="#g55"/><use y="41208" xlink:href="#g57"/><rect width="192" height="17" x="0" y="41225" class="color0"/><rect width="168" height="17" x="192" y="41225" class="color4"/><use y="41225" xlink:href="#g59"/><rect width="8" height="17" x="0" y="41242" class="foreground"/><use y="41242" xlink:href="#g26"/></g></g></svg></svg>