<svg xmlns="http://www.w3.org/2000/svg" viewBox="0 0 140.69 118.29"><defs><style>.cls-1{fill:#fff;fill-rule:evenodd;}</style></defs><g id="Layer_2" data-name="Layer 2"><g id="Layer_1-2" data-name="Layer 1"><path class="cls-1" d="M80.59,76.42c-5.49-16-12.68-34-20.33-45.46,0,0,7.21,39,2.05,52.09-9.49,24-12.41,33.12-13.79,35.24,0,0,2.54-32.16.51-49.54l-.51-35.22S36.24,51.9,8.68,68.75c0,0,2.55-12.1,12.12-25.29C29.86,31,30.51,24.18,34.08,18.55s3.7-7,3.7-7S39.32,3.89,0,9C0,9,13.26-3.25,55.66.83c0,0,3.08,11.74-2,22l1.53,2.55S72,28.42,76.1,42.21c1.14,3.88,2.75,9.15,4.49,15.2h0m0-36.31h0c-5.69,1.38-9.8,5.73-10.31,11.07h1.29a14.59,14.59,0,0,1,9-5.34m0,30.58C85,72.76,90.16,93.27,90.9,110.14c0,0-4.06-15.51-10.31-33.72h0m0-49.59c4.11-.69,9.6.21,16.47,5.16,16.85,12.16,29.21,20,43.63,31.82h0s-32-31.44-44.57-39.5C90.59,20.76,85.07,20,80.59,21.1"/></g></g></svg>